<svg width="97" height="97" viewBox="0 0 97 97" fill="none" xmlns="http://www.w3.org/2000/svg">
<path d="M22.3607 38.3189L22.3569 40.9297C22.3554 41.9761 23.2024 42.8256 24.2486 42.8271C24.2495 42.8271 24.2505 42.8271 24.2514 42.8271C25.2964 42.8271 26.1444 41.9806 26.146 40.9354L26.1509 37.5381C26.1516 37.0348 25.952 36.5517 25.596 36.1957L3.23429 13.834C2.49429 13.0946 1.29486 13.0944 0.55486 13.834C-0.184953 14.5738 -0.184953 15.7734 0.55486 16.5134L22.3607 38.3189Z" fill="#979797"/>
<path d="M36.1958 25.5959C36.5513 25.9511 37.033 26.1508 37.5355 26.1508C37.5362 26.1508 37.5374 26.1508 37.5381 26.1508L42.7945 26.1434C43.8408 26.1419 44.6879 25.2926 44.6864 24.2462C44.6848 23.2006 43.837 22.3543 42.7918 22.3543C42.7909 22.3543 42.7899 22.3543 42.789 22.3543L38.3188 22.3606L16.5136 0.554962C15.7738 -0.184662 14.5742 -0.184662 13.8342 0.554962C13.0943 1.29477 13.0943 2.49439 13.8342 3.23439L36.1958 25.5959Z" fill="#979797"/>
<path d="M81.8267 3.78906C82.3249 3.78906 82.8137 3.58634 83.1661 3.23377C83.5185 2.88158 83.7212 2.39279 83.7212 1.89453C83.7212 1.39627 83.5185 0.907477 83.1661 0.555095C82.8137 0.202713 82.3249 0 81.8267 0C81.3284 0 80.8396 0.202524 80.4872 0.555095C80.1348 0.907667 79.9321 1.39627 79.9321 1.89453C79.9321 2.39279 80.1348 2.88158 80.4872 3.23377C80.8396 3.58634 81.3284 3.78906 81.8267 3.78906Z" fill="#979797"/>
<path d="M41.0716 29.5558C40.3318 30.2958 40.3318 31.4952 41.0716 32.2352C41.4416 32.605 41.9264 32.7901 42.4112 32.7901C42.896 32.7901 43.381 32.605 43.7508 32.2352L45.4536 30.5322C48.2829 27.7029 52.0426 26.146 56.0429 26.146C56.0501 26.146 56.0575 26.146 56.0645 26.146L59.4618 26.1507C59.4627 26.1507 59.4635 26.1507 59.4644 26.1507C59.9668 26.1507 60.4488 25.9511 60.804 25.5958L77.6172 8.78285C78.357 8.04304 78.357 6.84343 77.6172 6.10342C76.8774 5.3638 75.6778 5.3638 74.938 6.10342L58.6808 22.3606L56.0698 22.3568C56.0605 22.3568 56.0518 22.3568 56.0427 22.3568C51.0306 22.3568 46.319 24.3081 42.7742 27.8528L41.0716 29.5558Z" fill="#979797"/>
<path d="M70.8492 37.5382L70.8568 42.7945C70.8583 43.8399 71.7061 44.6862 72.7513 44.6862C72.7523 44.6862 72.7532 44.6862 72.7542 44.6862C73.8005 44.6847 74.6476 43.8354 74.6461 42.7888L74.6396 38.3187L96.4451 16.5133C97.1849 15.7734 97.1849 14.5738 96.4451 13.8338C95.7055 13.0942 94.5056 13.0942 93.7658 13.8338L71.4041 36.1957C71.0484 36.5517 70.8485 37.0346 70.8492 37.5382Z" fill="#979797"/>
<path d="M96.445 80.4865L74.6394 58.6809L74.6432 56.0699C74.6468 53.5806 74.165 51.153 73.2113 48.854C72.8104 47.8874 71.7019 47.4291 70.7355 47.8298C69.7689 48.2307 69.3105 49.3392 69.7113 50.3056C70.4724 52.1404 70.8568 54.078 70.8539 56.0644L70.849 59.4616C70.8483 59.965 71.0479 60.4481 71.4039 60.8041L93.7658 83.166C94.1358 83.5358 94.6206 83.7209 95.1054 83.7209C95.5902 83.7209 96.0752 83.5358 96.445 83.166C97.1849 82.4259 97.185 81.2263 96.445 80.4865Z" fill="#979797"/>
<path d="M60.8042 71.4042C60.4488 71.0489 59.967 70.8493 59.4646 70.8493C59.4639 70.8493 59.4627 70.8493 59.462 70.8493L54.2056 70.8567C53.1592 70.8582 52.3122 71.7075 52.3137 72.7538C52.3152 73.7994 53.163 74.6457 54.2083 74.6457C54.2092 74.6457 54.2101 74.6457 54.2111 74.6457L58.6812 74.6395L80.4869 96.4451C80.8569 96.8149 81.3417 97 81.8265 97C82.3113 97 82.7963 96.8149 83.1661 96.4451C83.9059 95.7053 83.9059 94.5057 83.1661 93.7657L60.8042 71.4042Z" fill="#979797"/>
<path d="M15.1735 93.2108C14.6752 93.2108 14.1864 93.4133 13.834 93.7658C13.4816 94.1182 13.2789 94.607 13.2789 95.1053C13.2789 95.6035 13.4816 96.0923 13.834 96.4445C14.1864 96.7969 14.6752 96.9998 15.1735 96.9998C15.6717 96.9998 16.1605 96.7971 16.5129 96.4445C16.8672 96.0923 17.068 95.6035 17.068 95.1053C17.068 94.607 16.8672 94.1182 16.5129 93.7658C16.1605 93.4133 15.6717 93.2108 15.1735 93.2108Z" fill="#979797"/>
<path d="M67.7546 55.618C69.8355 53.537 69.8355 50.1508 67.7546 48.0696C67.3249 47.6399 66.8391 47.3004 66.3214 47.0483C66.7643 46.2602 67.0013 45.3684 67.0013 44.4397C67.0013 43.0141 66.4462 41.6737 65.4381 40.6654C64.9821 40.2096 64.4636 39.8536 63.9098 39.5975C64.8652 37.6109 64.5219 35.1508 62.8771 33.5058C61.2325 31.8616 58.7736 31.5177 56.7872 32.4722C56.5267 31.9116 56.1676 31.3947 55.7175 30.9446C53.6362 28.8637 50.2503 28.864 48.1691 30.9446L40.6052 38.5087C40.4609 36.9755 39.6695 35.5163 38.3244 34.5745C37.1231 33.7333 35.6675 33.4181 34.2258 33.6875C32.7841 33.9569 31.5405 34.7759 30.7236 35.9939L25.5339 43.733C23.4486 46.8429 22.349 50.466 22.3543 54.2107L22.3607 58.6807L0.555104 80.4865C-0.184709 81.2263 -0.184709 82.4259 0.555104 83.1659C0.924916 83.5357 1.40991 83.7208 1.89472 83.7208C2.37953 83.7208 2.86453 83.5357 3.23435 83.1659L25.596 60.8043C25.9518 60.4483 26.1517 59.9652 26.1509 59.4618L26.1434 54.2056C26.1392 51.2172 27.0165 48.3256 28.6811 45.8435L33.8706 38.1044C34.1157 37.7389 34.4889 37.4932 34.9215 37.4125C35.3538 37.3318 35.7909 37.4262 36.1512 37.6785C36.8497 38.1677 37.0505 39.122 36.6085 39.8512L34.5806 43.1961C33.941 44.251 34.1815 45.5694 35.152 46.331C36.1226 47.0926 37.4605 47.0119 38.3329 46.1397L50.8484 33.624C51.4522 33.0201 52.4345 33.0202 53.0383 33.624C53.3306 33.9165 53.4918 34.3053 53.4918 34.7189C53.4918 35.0699 53.3747 35.4022 53.1608 35.6739L45.7544 43.0976C45.0146 43.8374 45.0146 45.037 45.7544 45.777C46.4942 46.5167 47.6938 46.5167 48.4338 45.777L58.0084 36.1852C58.6122 35.5815 59.5945 35.5815 60.1981 36.1851C60.8019 36.789 60.8019 37.7712 60.1981 38.3749L50.615 47.9582C49.8752 48.698 49.8752 49.8976 50.615 50.6376C50.985 51.0075 51.4698 51.1926 51.9546 51.1926C52.4394 51.1926 52.9244 51.0075 53.2942 50.6376L60.7094 43.2223C61.3166 42.7456 62.2 42.7856 62.7591 43.3449C63.0516 43.6374 63.2126 44.0261 63.2126 44.4397C63.2126 44.8533 63.0516 45.2418 62.7591 45.5344L55.4752 52.8183C54.7354 53.5581 54.7354 54.7577 55.4752 55.4977C55.8452 55.8675 56.33 56.0526 56.8148 56.0526C57.2996 56.0526 57.7846 55.8675 58.1544 55.4977L63.0253 50.6269C63.6325 50.1492 64.5163 50.1894 65.0757 50.7491C65.3682 51.0414 65.5293 51.4303 65.5293 51.8439C65.5293 52.2575 65.3682 52.6462 65.0757 52.9386L51.5469 66.4676C48.7176 69.2969 44.9579 70.8538 40.9576 70.8538C40.9504 70.8538 40.943 70.8538 40.936 70.8538L37.5388 70.849C37.5378 70.849 37.5371 70.849 37.5361 70.849C37.0337 70.849 36.5517 71.0487 36.1965 71.4039L18.594 89.0064C17.8542 89.7462 17.8542 90.9458 18.594 91.6858C18.964 92.0556 19.4489 92.2407 19.9337 92.2407C20.4185 92.2407 20.9035 92.0556 21.2733 91.6858L38.3197 74.6392L40.9307 74.643C40.94 74.643 40.9487 74.643 40.9578 74.643C45.97 74.643 50.6815 72.6917 54.2263 69.147L67.7546 55.618Z" fill="#979797"/>
</svg>
