<svg width="112" height="111" viewBox="0 0 112 111" fill="none" xmlns="http://www.w3.org/2000/svg">
<path d="M88.0582 89.8553H77.829C85.2834 81.833 89.8553 71.0953 89.8553 59.3045C89.8553 49.5282 86.678 40.097 80.8589 32.3479H95.2466C104.164 32.3479 111.421 25.0912 111.421 16.1739C111.421 7.25671 104.164 0 95.2466 0H84.4639C75.5467 0 68.29 7.25671 68.29 16.1739V20.9237C61.2651 16.6322 53.2572 14.3768 44.9276 14.3768C20.1545 14.3768 0 34.5314 0 59.3045C0 70.6801 4.32923 81.585 11.9975 89.8553H10.7826V93.4495H44.9276C63.7559 93.4495 79.0726 78.1327 79.0726 59.3045C79.0726 40.4762 63.7559 25.1595 44.9276 25.1595C26.0994 25.1595 10.7826 40.4762 10.7826 59.3045C10.7826 72.657 18.4886 84.2447 29.6864 89.8553H17.1066C8.51648 82.0271 3.59421 70.9353 3.59421 59.3045C3.59421 36.5136 22.1367 17.9711 44.9276 17.9711C53.3453 17.9711 61.3945 20.4942 68.29 25.2332V32.3479H76.226C82.6884 39.8454 86.261 49.3773 86.261 59.3045C86.261 82.0954 67.7185 100.638 44.9276 100.638H14.3768V104.232H44.9276H88.0582V111L111.32 97.0437L88.0582 83.0874V89.8553ZM14.3768 59.3045C14.3768 42.4584 28.0816 28.7537 44.9276 28.7537C61.7737 28.7537 75.4784 42.4584 75.4784 59.3045C75.4784 76.1505 61.7737 89.8553 44.9276 89.8553C28.0816 89.8553 14.3768 76.1505 14.3768 59.3045ZM71.8842 16.1739C71.8842 9.23712 77.5271 3.59421 84.4639 3.59421H95.2466C102.183 3.59421 107.826 9.23712 107.826 16.1739C107.826 23.1108 102.183 28.7537 95.2466 28.7537H71.8842V16.1739ZM91.6524 89.4347L104.333 97.0437L91.6524 104.653V100.638H62.5267C66.7499 98.8336 70.6352 96.3931 74.0785 93.4495H91.6524V89.4347Z" fill="#979797"/>
<path d="M3.59424 89.8552H7.18845V93.4494H3.59424V89.8552Z" fill="#979797"/>
<path d="M0 100.638H3.59421V104.232H0V100.638Z" fill="#979797"/>
<path d="M7.18848 100.638H10.7827V104.232H7.18848V100.638Z" fill="#979797"/>
<path d="M71.8841 59.3045C71.8841 44.4406 59.7914 32.3479 44.9275 32.3479C30.0637 32.3479 17.9709 44.4406 17.9709 59.3045C17.9709 74.1683 30.0637 86.2611 44.9275 86.2611C59.7914 86.2611 71.8841 74.1683 71.8841 59.3045ZM32.2202 69.4707L27.2045 74.4864C24.0649 70.8275 22.045 66.1928 21.655 61.1034H28.7536V57.5092H21.6568C22.0468 52.418 24.0667 47.785 27.2063 44.1261L32.222 49.1418L34.7631 46.6007L29.7474 41.585C33.4063 38.4455 38.041 36.4255 43.1304 36.0356V43.1305H46.7246V36.0338C51.8158 36.4237 56.4488 38.4437 60.1077 41.5832L55.092 46.5989L57.6331 49.1401L62.6488 44.1243C65.7883 47.7832 67.8083 52.418 68.1982 57.5074H61.1015V61.1016H68.1982C67.8083 66.1928 65.7883 70.8257 62.6488 74.4846L57.6331 69.4689L55.092 72.01L60.1077 77.0257C56.4488 80.1653 51.814 82.1852 46.7246 82.5752V75.4784H43.1304V82.5752C38.0392 82.1852 33.4063 80.1653 29.7474 77.0257L34.7631 72.01L32.2202 69.4707Z" fill="#979797"/>
<path d="M44.9277 64.6959C45.758 64.6959 46.5343 64.4928 47.237 64.155L50.8456 67.7636L53.3867 65.2225L49.7781 61.6139C50.1159 60.9112 50.319 60.1349 50.319 59.3046C50.319 56.9648 48.8112 54.9879 46.7248 54.2439V46.7249H43.1306V54.2439C41.0441 54.9879 39.5364 56.9648 39.5364 59.3046C39.5364 62.277 41.9553 64.6959 44.9277 64.6959ZM44.9277 57.5075C45.9179 57.5075 46.7248 58.3144 46.7248 59.3046C46.7248 60.2948 45.9179 61.1017 44.9277 61.1017C43.9375 61.1017 43.1306 60.2948 43.1306 59.3046C43.1306 58.3144 43.9375 57.5075 44.9277 57.5075Z" fill="#979797"/>
<path d="M80.8696 7.18848H98.8407V10.7827H80.8696V7.18848Z" fill="#979797"/>
<path d="M80.8696 14.377H98.8407V17.9712H80.8696V14.377Z" fill="#979797"/>
<path d="M95.2466 21.5652H98.8408V25.1594H95.2466V21.5652Z" fill="#979797"/>
<path d="M88.0581 21.5652H91.6523V25.1594H88.0581V21.5652Z" fill="#979797"/>
<path d="M80.8696 21.5652H84.4638V25.1594H80.8696V21.5652Z" fill="#979797"/>
</svg>
