<svg width="398" height="398" viewBox="0 0 398 398" fill="none" xmlns="http://www.w3.org/2000/svg">
<circle cx="199" cy="199" r="198" fill="white" stroke="black" stroke-width="2"/>
<path d="M106.325 91.0073C103.028 90.0597 100.626 88.8986 99.1177 87.5239C97.6229 86.1359 96.8755 84.4276 96.8755 82.3989C96.8755 80.1034 97.7897 78.2082 99.6182 76.7134C101.46 75.2052 103.849 74.4512 106.785 74.4512C108.787 74.4512 110.569 74.8382 112.13 75.6123C113.705 76.3864 114.92 77.4541 115.774 78.8154C116.641 80.1768 117.075 81.6649 117.075 83.2798H113.211C113.211 81.5181 112.651 80.1367 111.53 79.1357C110.409 78.1214 108.827 77.6143 106.785 77.6143C104.89 77.6143 103.409 78.0347 102.341 78.8755C101.286 79.703 100.759 80.8574 100.759 82.3389C100.759 83.5267 101.26 84.5343 102.261 85.3618C103.275 86.1759 104.99 86.9233 107.406 87.604C109.835 88.2847 111.73 89.0387 113.091 89.8662C114.466 90.6803 115.48 91.6346 116.134 92.729C116.802 93.8234 117.135 95.1113 117.135 96.5928C117.135 98.9551 116.214 100.85 114.373 102.278C112.531 103.693 110.068 104.4 106.985 104.4C104.983 104.4 103.115 104.02 101.38 103.259C99.6449 102.485 98.3035 101.431 97.356 100.096C96.4217 98.7616 95.9546 97.2467 95.9546 95.5518H99.8184C99.8184 97.3135 100.466 98.7082 101.76 99.7358C103.068 100.75 104.81 101.257 106.985 101.257C109.014 101.257 110.569 100.844 111.65 100.016C112.731 99.1886 113.271 98.0609 113.271 96.6328C113.271 95.2048 112.771 94.1037 111.77 93.3296C110.769 92.5422 108.954 91.7681 106.325 91.0073ZM120.519 92.9692C120.519 90.8472 120.932 88.9386 121.76 87.2437C122.601 85.5487 123.762 84.2407 125.243 83.3198C126.738 82.3989 128.44 81.9385 130.348 81.9385C133.298 81.9385 135.68 82.9595 137.495 85.0015C139.324 87.0435 140.238 89.7594 140.238 93.1494V93.4097C140.238 95.5184 139.831 97.4136 139.017 99.0952C138.216 100.764 137.061 102.065 135.553 102.999C134.058 103.933 132.337 104.4 130.388 104.4C127.452 104.4 125.07 103.379 123.241 101.337C121.426 99.2954 120.519 96.5928 120.519 93.2295V92.9692ZM124.242 93.4097C124.242 95.812 124.796 97.7406 125.904 99.1953C127.025 100.65 128.52 101.377 130.388 101.377C132.27 101.377 133.765 100.643 134.873 99.1753C135.98 97.6938 136.534 95.6252 136.534 92.9692C136.534 90.5936 135.967 88.6717 134.833 87.2036C133.711 85.7222 132.217 84.9814 130.348 84.9814C128.52 84.9814 127.045 85.7088 125.924 87.1636C124.803 88.6183 124.242 90.7004 124.242 93.4097ZM158.255 101.858C156.814 103.553 154.699 104.4 151.909 104.4C149.6 104.4 147.839 103.733 146.624 102.398C145.423 101.05 144.816 99.0618 144.802 96.4326V82.3389H148.506V96.3325C148.506 99.6157 149.84 101.257 152.51 101.257C155.339 101.257 157.221 100.203 158.155 98.0942V82.3389H161.859V104H158.335L158.255 101.858ZM186.843 91.0073C183.547 90.0597 181.144 88.8986 179.636 87.5239C178.141 86.1359 177.394 84.4276 177.394 82.3989C177.394 80.1034 178.308 78.2082 180.137 76.7134C181.979 75.2052 184.368 74.4512 187.304 74.4512C189.306 74.4512 191.087 74.8382 192.649 75.6123C194.224 76.3864 195.438 77.4541 196.292 78.8154C197.16 80.1768 197.594 81.6649 197.594 83.2798H193.73C193.73 81.5181 193.169 80.1367 192.048 79.1357C190.927 78.1214 189.346 77.6143 187.304 77.6143C185.409 77.6143 183.927 78.0347 182.859 78.8755C181.805 79.703 181.278 80.8574 181.278 82.3389C181.278 83.5267 181.778 84.5343 182.779 85.3618C183.794 86.1759 185.509 86.9233 187.924 87.604C190.353 88.2847 192.249 89.0387 193.61 89.8662C194.985 90.6803 195.999 91.6346 196.653 92.729C197.32 93.8234 197.654 95.1113 197.654 96.5928C197.654 98.9551 196.733 100.85 194.891 102.278C193.049 103.693 190.587 104.4 187.504 104.4C185.502 104.4 183.633 104.02 181.898 103.259C180.163 102.485 178.822 101.431 177.875 100.096C176.94 98.7616 176.473 97.2467 176.473 95.5518H180.337C180.337 97.3135 180.984 98.7082 182.279 99.7358C183.587 100.75 185.328 101.257 187.504 101.257C189.533 101.257 191.087 100.844 192.168 100.016C193.25 99.1886 193.79 98.0609 193.79 96.6328C193.79 95.2048 193.29 94.1037 192.289 93.3296C191.288 92.5422 189.472 91.7681 186.843 91.0073ZM211.007 104.4C208.071 104.4 205.682 103.439 203.84 101.518C201.998 99.5824 201.077 96.9998 201.077 93.77V93.0894C201.077 90.9406 201.484 89.0254 202.298 87.3438C203.126 85.6488 204.274 84.3275 205.742 83.3799C207.223 82.4189 208.825 81.9385 210.546 81.9385C213.362 81.9385 215.551 82.866 217.113 84.7212C218.674 86.5763 219.455 89.2323 219.455 92.689V94.2305H204.781C204.834 96.3659 205.455 98.0942 206.643 99.4155C207.844 100.723 209.365 101.377 211.207 101.377C212.515 101.377 213.623 101.111 214.53 100.577C215.438 100.043 216.232 99.3354 216.913 98.4546L219.175 100.216C217.36 103.006 214.637 104.4 211.007 104.4ZM210.546 84.9814C209.052 84.9814 207.797 85.5286 206.783 86.623C205.768 87.7041 205.141 89.2256 204.901 91.1875H215.751V90.9072C215.645 89.0254 215.138 87.5706 214.23 86.543C213.322 85.502 212.095 84.9814 210.546 84.9814ZM222.878 92.9893C222.878 89.6126 223.659 86.93 225.221 84.9414C226.782 82.9395 228.851 81.9385 231.427 81.9385C234.069 81.9385 236.131 82.8727 237.613 84.7412L237.793 82.3389H241.176V103.479C241.176 106.282 240.342 108.491 238.674 110.106C237.019 111.721 234.79 112.528 231.987 112.528C230.426 112.528 228.898 112.195 227.403 111.527C225.908 110.86 224.767 109.946 223.979 108.785L225.901 106.562C227.49 108.524 229.431 109.505 231.727 109.505C233.529 109.505 234.93 108.998 235.931 107.984C236.945 106.97 237.453 105.542 237.453 103.7V101.838C235.971 103.546 233.949 104.4 231.387 104.4C228.851 104.4 226.796 103.379 225.221 101.337C223.659 99.2954 222.878 96.5127 222.878 92.9893ZM226.602 93.4097C226.602 95.8521 227.103 97.7739 228.104 99.1753C229.104 100.563 230.506 101.257 232.308 101.257C234.643 101.257 236.358 100.196 237.453 98.0742V88.1846C236.318 86.1159 234.617 85.0815 232.348 85.0815C230.546 85.0815 229.138 85.7822 228.124 87.1836C227.109 88.585 226.602 90.6603 226.602 93.4097ZM260.155 101.858C258.713 103.553 256.598 104.4 253.809 104.4C251.5 104.4 249.738 103.733 248.523 102.398C247.322 101.05 246.715 99.0618 246.702 96.4326V82.3389H250.405V96.3325C250.405 99.6157 251.74 101.257 254.409 101.257C257.239 101.257 259.12 100.203 260.055 98.0942V82.3389H263.758V104H260.235L260.155 101.858ZM279.874 85.6621C279.313 85.5687 278.706 85.522 278.052 85.522C275.623 85.522 273.975 86.5563 273.107 88.625V104H269.404V82.3389H273.007L273.067 84.8413C274.282 82.9061 276.004 81.9385 278.232 81.9385C278.953 81.9385 279.5 82.0319 279.874 82.2188V85.6621ZM281.916 92.9692C281.916 90.8472 282.33 88.9386 283.157 87.2437C283.998 85.5487 285.159 84.2407 286.641 83.3198C288.135 82.3989 289.837 81.9385 291.746 81.9385C294.695 81.9385 297.077 82.9595 298.893 85.0015C300.721 87.0435 301.635 89.7594 301.635 93.1494V93.4097C301.635 95.5184 301.228 97.4136 300.414 99.0952C299.613 100.764 298.459 102.065 296.951 102.999C295.456 103.933 293.734 104.4 291.786 104.4C288.849 104.4 286.467 103.379 284.639 101.337C282.824 99.2954 281.916 96.5928 281.916 93.2295V92.9692ZM285.64 93.4097C285.64 95.812 286.194 97.7406 287.301 99.1953C288.422 100.65 289.917 101.377 291.786 101.377C293.667 101.377 295.162 100.643 296.27 99.1753C297.378 97.6938 297.932 95.6252 297.932 92.9692C297.932 90.5936 297.364 88.6717 296.23 87.2036C295.109 85.7222 293.614 84.9814 291.746 84.9814C289.917 84.9814 288.442 85.7088 287.321 87.1636C286.2 88.6183 285.64 90.7004 285.64 93.4097Z" fill="#EB01FF"/>
<path d="M78.4375 159.4C75.5013 159.4 73.1123 158.439 71.2705 156.518C69.4287 154.582 68.5078 152 68.5078 148.77V148.089C68.5078 145.941 68.9149 144.025 69.729 142.344C70.5565 140.649 71.7043 139.327 73.1724 138.38C74.6538 137.419 76.2554 136.938 77.9771 136.938C80.7931 136.938 82.9819 137.866 84.5435 139.721C86.105 141.576 86.8857 144.232 86.8857 147.689V149.23H72.2114C72.2648 151.366 72.8854 153.094 74.0732 154.416C75.2744 155.723 76.7959 156.377 78.6377 156.377C79.9456 156.377 81.0534 156.111 81.9609 155.577C82.8685 155.043 83.6626 154.335 84.3433 153.455L86.6055 155.216C84.7904 158.006 82.0677 159.4 78.4375 159.4ZM77.9771 139.981C76.4823 139.981 75.2277 140.529 74.2134 141.623C73.1991 142.704 72.5718 144.226 72.3315 146.188H83.1821V145.907C83.0754 144.025 82.5682 142.571 81.6606 141.543C80.7531 140.502 79.5252 139.981 77.9771 139.981ZM79.7788 128.25H84.2632L78.8979 134.136H75.915L79.7788 128.25ZM100.379 147.969C100.379 145.847 100.793 143.939 101.62 142.244C102.461 140.549 103.622 139.241 105.104 138.32C106.598 137.399 108.3 136.938 110.208 136.938C113.158 136.938 115.54 137.959 117.355 140.001C119.184 142.043 120.098 144.759 120.098 148.149V148.41C120.098 150.518 119.691 152.414 118.877 154.095C118.076 155.764 116.922 157.065 115.414 157.999C113.919 158.933 112.197 159.4 110.249 159.4C107.312 159.4 104.93 158.379 103.102 156.337C101.286 154.295 100.379 151.593 100.379 148.229V147.969ZM104.103 148.41C104.103 150.812 104.656 152.741 105.764 154.195C106.885 155.65 108.38 156.377 110.249 156.377C112.13 156.377 113.625 155.643 114.733 154.175C115.841 152.694 116.395 150.625 116.395 147.969C116.395 145.594 115.827 143.672 114.693 142.204C113.572 140.722 112.077 139.981 110.208 139.981C108.38 139.981 106.905 140.709 105.784 142.164C104.663 143.618 104.103 145.7 104.103 148.41ZM157.895 159H154.031L139.357 136.538V159H135.493V129.852H139.357L154.071 152.414V129.852H157.895V159ZM187.144 145.367C187.144 148.223 186.663 150.719 185.702 152.854C184.741 154.976 183.38 156.598 181.618 157.719C179.856 158.84 177.801 159.4 175.452 159.4C173.157 159.4 171.121 158.84 169.346 157.719C167.571 156.584 166.19 154.976 165.202 152.894C164.228 150.799 163.727 148.376 163.701 145.627V143.525C163.701 140.722 164.188 138.246 165.162 136.098C166.136 133.949 167.511 132.307 169.286 131.173C171.075 130.025 173.117 129.451 175.412 129.451C177.748 129.451 179.803 130.018 181.578 131.153C183.367 132.274 184.741 133.909 185.702 136.058C186.663 138.193 187.144 140.682 187.144 143.525V145.367ZM183.32 143.485C183.32 140.028 182.626 137.379 181.238 135.537C179.85 133.682 177.908 132.754 175.412 132.754C172.983 132.754 171.068 133.682 169.667 135.537C168.278 137.379 167.564 139.941 167.524 143.225V145.367C167.524 148.717 168.225 151.353 169.626 153.274C171.041 155.183 172.983 156.137 175.452 156.137C177.935 156.137 179.856 155.236 181.218 153.435C182.579 151.619 183.28 149.024 183.32 145.647V143.485ZM202.118 153.895L210.446 129.852H214.65L203.84 159H200.437L189.646 129.852H193.83L202.118 153.895ZM240.716 145.367C240.716 148.223 240.235 150.719 239.274 152.854C238.313 154.976 236.952 156.598 235.19 157.719C233.429 158.84 231.373 159.4 229.024 159.4C226.729 159.4 224.694 158.84 222.918 157.719C221.143 156.584 219.762 154.976 218.774 152.894C217.8 150.799 217.3 148.376 217.273 145.627V143.525C217.273 140.722 217.76 138.246 218.734 136.098C219.709 133.949 221.083 132.307 222.858 131.173C224.647 130.025 226.689 129.451 228.984 129.451C231.32 129.451 233.375 130.018 235.15 131.153C236.939 132.274 238.313 133.909 239.274 136.058C240.235 138.193 240.716 140.682 240.716 143.525V145.367ZM236.892 143.485C236.892 140.028 236.198 137.379 234.81 135.537C233.422 133.682 231.48 132.754 228.984 132.754C226.555 132.754 224.64 133.682 223.239 135.537C221.851 137.379 221.137 139.941 221.097 143.225V145.367C221.097 148.717 221.797 151.353 223.199 153.274C224.613 155.183 226.555 156.137 229.024 156.137C231.507 156.137 233.429 155.236 234.79 153.435C236.151 151.619 236.852 149.024 236.892 145.647V143.485ZM259.895 137.339V161.502C259.895 165.667 258.006 167.749 254.229 167.749C253.415 167.749 252.661 167.628 251.967 167.388V164.425C252.394 164.532 252.954 164.585 253.648 164.585C254.476 164.585 255.103 164.359 255.53 163.905C255.971 163.464 256.191 162.69 256.191 161.583V137.339H259.895ZM255.811 131.593C255.811 131.006 255.991 130.506 256.351 130.092C256.725 129.665 257.265 129.451 257.973 129.451C258.693 129.451 259.241 129.658 259.614 130.072C259.988 130.486 260.175 130.993 260.175 131.593C260.175 132.194 259.988 132.694 259.614 133.095C259.241 133.495 258.693 133.695 257.973 133.695C257.252 133.695 256.711 133.495 256.351 133.095C255.991 132.694 255.811 132.194 255.811 131.593ZM274.869 159.4C271.933 159.4 269.544 158.439 267.702 156.518C265.86 154.582 264.939 152 264.939 148.77V148.089C264.939 145.941 265.347 144.025 266.161 142.344C266.988 140.649 268.136 139.327 269.604 138.38C271.085 137.419 272.687 136.938 274.409 136.938C277.225 136.938 279.414 137.866 280.975 139.721C282.537 141.576 283.317 144.232 283.317 147.689V149.23H268.643C268.696 151.366 269.317 153.094 270.505 154.416C271.706 155.723 273.228 156.377 275.069 156.377C276.377 156.377 277.485 156.111 278.393 155.577C279.3 155.043 280.094 154.335 280.775 153.455L283.037 155.216C281.222 158.006 278.499 159.4 274.869 159.4ZM274.409 139.981C272.914 139.981 271.659 140.529 270.645 141.623C269.631 142.704 269.003 144.226 268.763 146.188H279.614V145.907C279.507 144.025 279 142.571 278.092 141.543C277.185 140.502 275.957 139.981 274.409 139.981ZM291.646 159H287.942V137.339H291.646V159ZM287.642 131.593C287.642 130.993 287.822 130.486 288.182 130.072C288.556 129.658 289.103 129.451 289.824 129.451C290.544 129.451 291.092 129.658 291.465 130.072C291.839 130.486 292.026 130.993 292.026 131.593C292.026 132.194 291.839 132.694 291.465 133.095C291.092 133.495 290.544 133.695 289.824 133.695C289.103 133.695 288.556 133.495 288.182 133.095C287.822 132.694 287.642 132.194 287.642 131.593ZM302.616 132.094V137.339H306.66V140.202H302.616V153.635C302.616 154.502 302.796 155.156 303.157 155.597C303.517 156.024 304.131 156.237 304.999 156.237C305.426 156.237 306.013 156.157 306.76 155.997V159C305.786 159.267 304.838 159.4 303.917 159.4C302.263 159.4 301.015 158.9 300.174 157.899C299.333 156.898 298.913 155.477 298.913 153.635V140.202H294.969V137.339H298.913V132.094H302.616ZM309.623 147.969C309.623 145.847 310.037 143.939 310.864 142.244C311.705 140.549 312.866 139.241 314.348 138.32C315.842 137.399 317.544 136.938 319.453 136.938C322.402 136.938 324.785 137.959 326.6 140.001C328.428 142.043 329.342 144.759 329.342 148.149V148.41C329.342 150.518 328.935 152.414 328.121 154.095C327.32 155.764 326.166 157.065 324.658 157.999C323.163 158.933 321.441 159.4 319.493 159.4C316.556 159.4 314.174 158.379 312.346 156.337C310.531 154.295 309.623 151.593 309.623 148.229V147.969ZM313.347 148.41C313.347 150.812 313.901 152.741 315.008 154.195C316.129 155.65 317.624 156.377 319.493 156.377C321.375 156.377 322.869 155.643 323.977 154.175C325.085 152.694 325.639 150.625 325.639 147.969C325.639 145.594 325.071 143.672 323.937 142.204C322.816 140.722 321.321 139.981 319.453 139.981C317.624 139.981 316.149 140.709 315.028 142.164C313.907 143.618 313.347 145.7 313.347 148.41ZM80.7598 202.989C80.7598 199.666 81.5472 196.997 83.1221 194.981C84.6969 192.953 86.759 191.938 89.3081 191.938C91.8439 191.938 93.8525 192.806 95.334 194.541V183.25H99.0376V214H95.6343L95.4541 211.678C93.9727 213.493 91.9106 214.4 89.2681 214.4C86.759 214.4 84.7103 213.373 83.1221 211.317C81.5472 209.262 80.7598 206.579 80.7598 203.27V202.989ZM84.4634 203.41C84.4634 205.865 84.9705 207.787 85.9849 209.175C86.9992 210.563 88.4006 211.257 90.189 211.257C92.5379 211.257 94.2529 210.203 95.334 208.094V198.145C94.2262 196.103 92.5246 195.082 90.229 195.082C88.4139 195.082 86.9992 195.782 85.9849 197.184C84.9705 198.585 84.4634 200.66 84.4634 203.41ZM113.792 214.4C110.856 214.4 108.467 213.439 106.625 211.518C104.783 209.582 103.862 207 103.862 203.77V203.089C103.862 200.941 104.269 199.025 105.083 197.344C105.911 195.649 107.059 194.327 108.527 193.38C110.008 192.419 111.61 191.938 113.332 191.938C116.148 191.938 118.336 192.866 119.898 194.721C121.459 196.576 122.24 199.232 122.24 202.689V204.23H107.566C107.619 206.366 108.24 208.094 109.428 209.416C110.629 210.723 112.15 211.377 113.992 211.377C115.3 211.377 116.408 211.111 117.315 210.577C118.223 210.043 119.017 209.335 119.698 208.455L121.96 210.216C120.145 213.006 117.422 214.4 113.792 214.4ZM113.332 194.981C111.837 194.981 110.582 195.529 109.568 196.623C108.554 197.704 107.926 199.226 107.686 201.188H118.537V200.907C118.43 199.025 117.923 197.571 117.015 196.543C116.108 195.502 114.88 194.981 113.332 194.981ZM143.861 208.975L149.227 192.339H153.01L145.243 214H142.42L134.572 192.339H138.356L143.861 208.975ZM155.272 202.969C155.272 200.847 155.686 198.939 156.514 197.244C157.354 195.549 158.516 194.241 159.997 193.32C161.492 192.399 163.194 191.938 165.102 191.938C168.052 191.938 170.434 192.959 172.249 195.001C174.077 197.043 174.992 199.759 174.992 203.149V203.41C174.992 205.518 174.585 207.414 173.771 209.095C172.97 210.764 171.815 212.065 170.307 212.999C168.812 213.933 167.091 214.4 165.142 214.4C162.206 214.4 159.824 213.379 157.995 211.337C156.18 209.295 155.272 206.593 155.272 203.229V202.969ZM158.996 203.41C158.996 205.812 159.55 207.741 160.658 209.195C161.779 210.65 163.274 211.377 165.142 211.377C167.024 211.377 168.519 210.643 169.626 209.175C170.734 207.694 171.288 205.625 171.288 202.969C171.288 200.594 170.721 198.672 169.586 197.204C168.465 195.722 166.971 194.981 165.102 194.981C163.274 194.981 161.799 195.709 160.678 197.164C159.557 198.618 158.996 200.7 158.996 203.41ZM188.325 211.377C189.646 211.377 190.8 210.977 191.788 210.176C192.776 209.375 193.323 208.375 193.43 207.173H196.933C196.866 208.415 196.439 209.596 195.652 210.717C194.864 211.838 193.81 212.732 192.489 213.399C191.181 214.067 189.793 214.4 188.325 214.4C185.375 214.4 183.026 213.419 181.278 211.458C179.543 209.482 178.675 206.786 178.675 203.37V202.749C178.675 200.64 179.062 198.765 179.836 197.124C180.611 195.482 181.718 194.207 183.16 193.3C184.614 192.392 186.329 191.938 188.305 191.938C190.734 191.938 192.749 192.666 194.351 194.121C195.965 195.575 196.826 197.464 196.933 199.786H193.43C193.323 198.385 192.789 197.237 191.828 196.343C190.881 195.435 189.706 194.981 188.305 194.981C186.423 194.981 184.961 195.662 183.92 197.023C182.893 198.371 182.379 200.327 182.379 202.889V203.59C182.379 206.086 182.893 208.007 183.92 209.355C184.948 210.703 186.416 211.377 188.325 211.377ZM210.086 214.4C207.15 214.4 204.761 213.439 202.919 211.518C201.077 209.582 200.156 207 200.156 203.77V203.089C200.156 200.941 200.563 199.025 201.377 197.344C202.205 195.649 203.353 194.327 204.821 193.38C206.302 192.419 207.904 191.938 209.625 191.938C212.442 191.938 214.63 192.866 216.192 194.721C217.753 196.576 218.534 199.232 218.534 202.689V204.23H203.86C203.913 206.366 204.534 208.094 205.722 209.416C206.923 210.723 208.444 211.377 210.286 211.377C211.594 211.377 212.702 211.111 213.609 210.577C214.517 210.043 215.311 209.335 215.992 208.455L218.254 210.216C216.439 213.006 213.716 214.4 210.086 214.4ZM209.625 194.981C208.131 194.981 206.876 195.529 205.862 196.623C204.847 197.704 204.22 199.226 203.98 201.188H214.831V200.907C214.724 199.025 214.217 197.571 213.309 196.543C212.402 195.502 211.174 194.981 209.625 194.981ZM215.671 188.735V188.936H212.608L209.605 185.532L206.623 188.936H203.56V188.695L208.484 183.25H210.727L215.671 188.735ZM232.107 202.989C232.107 199.666 232.895 196.997 234.47 194.981C236.045 192.953 238.107 191.938 240.656 191.938C243.192 191.938 245.2 192.806 246.682 194.541V183.25H250.385V214H246.982L246.802 211.678C245.32 213.493 243.258 214.4 240.616 214.4C238.107 214.4 236.058 213.373 234.47 211.317C232.895 209.262 232.107 206.579 232.107 203.27V202.989ZM235.811 203.41C235.811 205.865 236.318 207.787 237.333 209.175C238.347 210.563 239.748 211.257 241.537 211.257C243.886 211.257 245.601 210.203 246.682 208.094V198.145C245.574 196.103 243.872 195.082 241.577 195.082C239.762 195.082 238.347 195.782 237.333 197.184C236.318 198.585 235.811 200.66 235.811 203.41ZM260.175 214H256.471V192.339H260.175V214ZM256.171 186.593C256.171 185.993 256.351 185.486 256.711 185.072C257.085 184.658 257.632 184.451 258.353 184.451C259.074 184.451 259.621 184.658 259.995 185.072C260.368 185.486 260.555 185.993 260.555 186.593C260.555 187.194 260.368 187.694 259.995 188.095C259.621 188.495 259.074 188.695 258.353 188.695C257.632 188.695 257.085 188.495 256.711 188.095C256.351 187.694 256.171 187.194 256.171 186.593ZM269.604 210.977H282.276V214H265.08V211.277L277.031 195.402H265.26V192.339H281.676V194.961L269.604 210.977ZM295.129 214.4C292.193 214.4 289.804 213.439 287.962 211.518C286.12 209.582 285.199 207 285.199 203.77V203.089C285.199 200.941 285.606 199.025 286.42 197.344C287.248 195.649 288.396 194.327 289.864 193.38C291.345 192.419 292.947 191.938 294.668 191.938C297.485 191.938 299.673 192.866 301.235 194.721C302.796 196.576 303.577 199.232 303.577 202.689V204.23H288.903C288.956 206.366 289.577 208.094 290.765 209.416C291.966 210.723 293.487 211.377 295.329 211.377C296.637 211.377 297.745 211.111 298.652 210.577C299.56 210.043 300.354 209.335 301.035 208.455L303.297 210.216C301.482 213.006 298.759 214.4 295.129 214.4ZM294.668 194.981C293.174 194.981 291.919 195.529 290.905 196.623C289.89 197.704 289.263 199.226 289.023 201.188H299.874V200.907C299.767 199.025 299.26 197.571 298.352 196.543C297.444 195.502 296.217 194.981 294.668 194.981ZM318.352 195.662C317.791 195.569 317.184 195.522 316.53 195.522C314.101 195.522 312.452 196.556 311.585 198.625V214H307.881V192.339H311.485L311.545 194.841C312.759 192.906 314.481 191.938 316.71 191.938C317.431 191.938 317.978 192.032 318.352 192.219V195.662ZM122.601 257.989C122.601 254.586 123.381 251.897 124.943 249.921C126.504 247.933 128.6 246.938 131.229 246.938C133.792 246.938 135.813 247.799 137.295 249.521L137.455 247.339H140.858V277.328H137.155V266.998C135.66 268.6 133.671 269.4 131.189 269.4C128.573 269.4 126.484 268.386 124.923 266.357C123.375 264.315 122.601 261.613 122.601 258.25V257.989ZM126.304 258.41C126.304 260.892 126.825 262.841 127.866 264.255C128.92 265.67 130.335 266.377 132.11 266.377C134.312 266.377 135.994 265.403 137.155 263.455V252.844C135.98 250.936 134.312 249.981 132.15 249.981C130.361 249.981 128.94 250.695 127.886 252.124C126.831 253.538 126.304 255.634 126.304 258.41ZM160.177 266.858C158.736 268.553 156.62 269.4 153.831 269.4C151.522 269.4 149.76 268.733 148.546 267.398C147.345 266.05 146.737 264.062 146.724 261.433V247.339H150.428V261.333C150.428 264.616 151.762 266.257 154.432 266.257C157.261 266.257 159.143 265.203 160.077 263.094V247.339H163.781V269H160.257L160.177 266.858ZM178.415 269.4C175.479 269.4 173.09 268.439 171.248 266.518C169.406 264.582 168.485 262 168.485 258.77V258.089C168.485 255.941 168.892 254.025 169.707 252.344C170.534 250.649 171.682 249.327 173.15 248.38C174.631 247.419 176.233 246.938 177.955 246.938C180.771 246.938 182.959 247.866 184.521 249.721C186.083 251.576 186.863 254.232 186.863 257.689V259.23H172.189C172.242 261.366 172.863 263.094 174.051 264.416C175.252 265.723 176.773 266.377 178.615 266.377C179.923 266.377 181.031 266.111 181.938 265.577C182.846 265.043 183.64 264.335 184.321 263.455L186.583 265.216C184.768 268.006 182.045 269.4 178.415 269.4ZM177.955 249.981C176.46 249.981 175.205 250.529 174.191 251.623C173.177 252.704 172.549 254.226 172.309 256.188H183.16V255.907C183.053 254.025 182.546 252.571 181.638 251.543C180.731 250.502 179.503 249.981 177.955 249.981ZM210.326 269.4C207.39 269.4 205.001 268.439 203.159 266.518C201.317 264.582 200.396 262 200.396 258.77V258.089C200.396 255.941 200.804 254.025 201.618 252.344C202.445 250.649 203.593 249.327 205.061 248.38C206.542 247.419 208.144 246.938 209.866 246.938C212.682 246.938 214.871 247.866 216.432 249.721C217.994 251.576 218.774 254.232 218.774 257.689V259.23H204.1C204.153 261.366 204.774 263.094 205.962 264.416C207.163 265.723 208.685 266.377 210.526 266.377C211.834 266.377 212.942 266.111 213.85 265.577C214.757 265.043 215.551 264.335 216.232 263.455L218.494 265.216C216.679 268.006 213.956 269.4 210.326 269.4ZM209.866 249.981C208.371 249.981 207.116 250.529 206.102 251.623C205.088 252.704 204.46 254.226 204.22 256.188H215.071V255.907C214.964 254.025 214.457 252.571 213.549 251.543C212.642 250.502 211.414 249.981 209.866 249.981ZM235.691 263.254C235.691 262.253 235.311 261.479 234.55 260.932C233.802 260.372 232.488 259.891 230.606 259.491C228.737 259.09 227.249 258.61 226.142 258.049C225.047 257.489 224.233 256.821 223.699 256.047C223.179 255.273 222.918 254.352 222.918 253.285C222.918 251.51 223.666 250.008 225.161 248.78C226.669 247.552 228.591 246.938 230.926 246.938C233.382 246.938 235.371 247.572 236.892 248.84C238.427 250.108 239.194 251.73 239.194 253.705H235.471C235.471 252.691 235.037 251.817 234.169 251.083C233.315 250.348 232.234 249.981 230.926 249.981C229.578 249.981 228.524 250.275 227.763 250.862C227.002 251.45 226.622 252.217 226.622 253.165C226.622 254.059 226.976 254.733 227.683 255.187C228.39 255.64 229.665 256.074 231.507 256.488C233.362 256.902 234.863 257.395 236.011 257.969C237.159 258.543 238.007 259.237 238.554 260.051C239.114 260.852 239.395 261.833 239.395 262.994C239.395 264.929 238.62 266.484 237.072 267.659C235.524 268.82 233.515 269.4 231.046 269.4C229.311 269.4 227.777 269.093 226.442 268.479C225.107 267.866 224.06 267.011 223.299 265.917C222.551 264.809 222.178 263.615 222.178 262.333H225.881C225.948 263.575 226.442 264.562 227.363 265.296C228.297 266.017 229.525 266.377 231.046 266.377C232.448 266.377 233.569 266.097 234.41 265.537C235.264 264.963 235.691 264.202 235.691 263.254ZM249.244 242.094V247.339H253.288V250.202H249.244V263.635C249.244 264.502 249.424 265.156 249.785 265.597C250.145 266.024 250.759 266.237 251.626 266.237C252.054 266.237 252.641 266.157 253.388 265.997V269C252.414 269.267 251.466 269.4 250.545 269.4C248.89 269.4 247.643 268.9 246.802 267.899C245.961 266.898 245.541 265.477 245.541 263.635V250.202H241.597V247.339H245.541V242.094H249.244ZM271.005 269C270.792 268.573 270.618 267.812 270.485 266.718C268.763 268.506 266.708 269.4 264.319 269.4C262.183 269.4 260.428 268.8 259.054 267.599C257.692 266.384 257.012 264.849 257.012 262.994C257.012 260.739 257.866 258.99 259.574 257.749C261.296 256.494 263.712 255.867 266.821 255.867H270.425V254.166C270.425 252.871 270.038 251.843 269.264 251.083C268.49 250.308 267.348 249.921 265.84 249.921C264.519 249.921 263.411 250.255 262.517 250.922C261.623 251.59 261.176 252.397 261.176 253.345H257.452C257.452 252.264 257.833 251.223 258.593 250.222C259.367 249.207 260.408 248.407 261.716 247.819C263.038 247.232 264.486 246.938 266.061 246.938C268.556 246.938 270.512 247.566 271.926 248.82C273.341 250.062 274.075 251.777 274.128 253.965V263.935C274.128 265.924 274.382 267.505 274.889 268.68V269H271.005ZM264.859 266.177C266.021 266.177 267.122 265.877 268.163 265.276C269.204 264.676 269.958 263.895 270.425 262.934V258.49H267.522C262.984 258.49 260.715 259.818 260.715 262.474C260.715 263.635 261.102 264.542 261.876 265.196C262.651 265.85 263.645 266.177 264.859 266.177ZM268.283 238.25H272.767L267.402 244.136H264.419L268.283 238.25ZM132.41 313.41C132.41 316.706 131.656 319.362 130.148 321.377C128.64 323.393 126.598 324.4 124.022 324.4C121.393 324.4 119.324 323.566 117.816 321.898V332.328H114.112V302.339H117.496L117.676 304.741C119.184 302.873 121.279 301.938 123.962 301.938C126.564 301.938 128.62 302.919 130.128 304.881C131.649 306.843 132.41 309.573 132.41 313.069V313.41ZM128.707 312.989C128.707 310.547 128.186 308.618 127.145 307.204C126.104 305.789 124.676 305.082 122.861 305.082C120.619 305.082 118.937 306.076 117.816 308.064V318.415C118.924 320.39 120.619 321.377 122.901 321.377C124.676 321.377 126.084 320.677 127.125 319.275C128.179 317.861 128.707 315.765 128.707 312.989ZM147.605 305.662C147.044 305.569 146.437 305.522 145.783 305.522C143.354 305.522 141.706 306.556 140.838 308.625V324H137.135V302.339H140.738L140.798 304.841C142.013 302.906 143.735 301.938 145.963 301.938C146.684 301.938 147.231 302.032 147.605 302.219V305.662ZM149.647 312.969C149.647 310.847 150.061 308.939 150.888 307.244C151.729 305.549 152.89 304.241 154.372 303.32C155.866 302.399 157.568 301.938 159.477 301.938C162.426 301.938 164.808 302.959 166.624 305.001C168.452 307.043 169.366 309.759 169.366 313.149V313.41C169.366 315.518 168.959 317.414 168.145 319.095C167.344 320.764 166.19 322.065 164.682 322.999C163.187 323.933 161.465 324.4 159.517 324.4C156.58 324.4 154.198 323.379 152.37 321.337C150.555 319.295 149.647 316.593 149.647 313.229V312.969ZM153.371 313.41C153.371 315.812 153.924 317.741 155.032 319.195C156.153 320.65 157.648 321.377 159.517 321.377C161.398 321.377 162.893 320.643 164.001 319.175C165.109 317.694 165.663 315.625 165.663 312.969C165.663 310.594 165.095 308.672 163.961 307.204C162.84 305.722 161.345 304.981 159.477 304.981C157.648 304.981 156.173 305.709 155.052 307.164C153.931 308.618 153.371 310.7 153.371 313.41ZM179.036 297.094V302.339H183.08V305.202H179.036V318.635C179.036 319.502 179.216 320.156 179.576 320.597C179.937 321.024 180.55 321.237 181.418 321.237C181.845 321.237 182.432 321.157 183.18 320.997V324C182.205 324.267 181.258 324.4 180.337 324.4C178.682 324.4 177.434 323.9 176.593 322.899C175.752 321.898 175.332 320.477 175.332 318.635V305.202H171.388V302.339H175.332V297.094H179.036ZM196.413 324.4C193.476 324.4 191.087 323.439 189.246 321.518C187.404 319.582 186.483 317 186.483 313.77V313.089C186.483 310.941 186.89 309.025 187.704 307.344C188.532 305.649 189.679 304.327 191.147 303.38C192.629 302.419 194.23 301.938 195.952 301.938C198.768 301.938 200.957 302.866 202.519 304.721C204.08 306.576 204.861 309.232 204.861 312.689V314.23H190.187C190.24 316.366 190.861 318.094 192.048 319.416C193.25 320.723 194.771 321.377 196.613 321.377C197.921 321.377 199.028 321.111 199.936 320.577C200.844 320.043 201.638 319.335 202.318 318.455L204.581 320.216C202.765 323.006 200.043 324.4 196.413 324.4ZM195.952 304.981C194.457 304.981 193.203 305.529 192.188 306.623C191.174 307.704 190.547 309.226 190.307 311.188H201.157V310.907C201.05 309.025 200.543 307.571 199.636 306.543C198.728 305.502 197.5 304.981 195.952 304.981ZM208.284 312.989C208.284 309.613 209.065 306.93 210.626 304.941C212.188 302.939 214.257 301.938 216.833 301.938C219.475 301.938 221.537 302.873 223.019 304.741L223.199 302.339H226.582V323.479C226.582 326.282 225.748 328.491 224.08 330.106C222.425 331.721 220.196 332.528 217.393 332.528C215.832 332.528 214.303 332.195 212.809 331.527C211.314 330.86 210.173 329.946 209.385 328.785L211.307 326.562C212.895 328.524 214.837 329.505 217.133 329.505C218.935 329.505 220.336 328.998 221.337 327.984C222.351 326.97 222.858 325.542 222.858 323.7V321.838C221.377 323.546 219.355 324.4 216.792 324.4C214.257 324.4 212.201 323.379 210.626 321.337C209.065 319.295 208.284 316.513 208.284 312.989ZM212.008 313.41C212.008 315.852 212.508 317.774 213.509 319.175C214.51 320.563 215.912 321.257 217.713 321.257C220.049 321.257 221.764 320.196 222.858 318.074V308.185C221.724 306.116 220.022 305.082 217.753 305.082C215.952 305.082 214.544 305.782 213.529 307.184C212.515 308.585 212.008 310.66 212.008 313.41ZM236.211 324H232.508V302.339H236.211V324ZM232.208 296.593C232.208 295.993 232.388 295.486 232.748 295.072C233.122 294.658 233.669 294.451 234.39 294.451C235.11 294.451 235.658 294.658 236.031 295.072C236.405 295.486 236.592 295.993 236.592 296.593C236.592 297.194 236.405 297.694 236.031 298.095C235.658 298.495 235.11 298.695 234.39 298.695C233.669 298.695 233.122 298.495 232.748 298.095C232.388 297.694 232.208 297.194 232.208 296.593ZM241.256 312.989C241.256 309.666 242.044 306.997 243.619 304.981C245.194 302.953 247.256 301.938 249.805 301.938C252.34 301.938 254.349 302.806 255.831 304.541V293.25H259.534V324H256.131L255.951 321.678C254.469 323.493 252.407 324.4 249.765 324.4C247.256 324.4 245.207 323.373 243.619 321.317C242.044 319.262 241.256 316.579 241.256 313.27V312.989ZM244.96 313.41C244.96 315.865 245.467 317.787 246.481 319.175C247.496 320.563 248.897 321.257 250.686 321.257C253.035 321.257 254.75 320.203 255.831 318.094V308.145C254.723 306.103 253.021 305.082 250.726 305.082C248.91 305.082 247.496 305.782 246.481 307.184C245.467 308.585 244.96 310.66 244.96 313.41ZM264.319 312.969C264.319 310.847 264.733 308.939 265.56 307.244C266.401 305.549 267.562 304.241 269.043 303.32C270.538 302.399 272.24 301.938 274.148 301.938C277.098 301.938 279.48 302.959 281.295 305.001C283.124 307.043 284.038 309.759 284.038 313.149V313.41C284.038 315.518 283.631 317.414 282.817 319.095C282.016 320.764 280.862 322.065 279.354 322.999C277.859 323.933 276.137 324.4 274.188 324.4C271.252 324.4 268.87 323.379 267.042 321.337C265.226 319.295 264.319 316.593 264.319 313.229V312.969ZM268.042 313.41C268.042 315.812 268.596 317.741 269.704 319.195C270.825 320.65 272.32 321.377 274.188 321.377C276.07 321.377 277.565 320.643 278.673 319.175C279.781 317.694 280.334 315.625 280.334 312.969C280.334 310.594 279.767 308.672 278.633 307.204C277.512 305.722 276.017 304.981 274.148 304.981C272.32 304.981 270.845 305.709 269.724 307.164C268.603 308.618 268.042 310.7 268.042 313.41ZM288.763 322.058C288.763 321.417 288.95 320.884 289.323 320.457C289.71 320.029 290.284 319.816 291.045 319.816C291.806 319.816 292.38 320.029 292.767 320.457C293.167 320.884 293.367 321.417 293.367 322.058C293.367 322.672 293.167 323.186 292.767 323.6C292.38 324.013 291.806 324.22 291.045 324.22C290.284 324.22 289.71 324.013 289.323 323.6C288.95 323.186 288.763 322.672 288.763 322.058Z" fill="black"/>
</svg>
