<svg width="111" height="112" viewBox="0 0 111 112" fill="none" xmlns="http://www.w3.org/2000/svg">
<path d="M94.5463 23.241C85.3333 14.1195 73.4746 8.61006 60.718 7.42659V5.21807C60.718 2.34092 58.3783 0 55.5011 0C52.624 0 50.2831 2.34092 50.2831 5.21807V7.42573C40.3407 8.34701 30.9241 11.8983 22.7918 17.8402C22.0668 18.3698 21.9087 19.387 22.4383 20.112C22.9679 20.837 23.9851 20.9951 24.7101 20.4656C31.7089 15.3524 39.7183 12.1186 48.1942 10.9397C45.5677 13.7955 43.2077 18.2296 41.2596 24.0755C38.1261 33.4727 36.2743 45.6612 35.9626 58.7407C31.813 54.4725 26.0066 52.0795 19.5724 52.0795C13.1371 52.0795 7.49348 54.5029 3.37736 58.9688C4.29314 45.7731 10.0645 33.632 19.8277 24.5057C20.4836 23.8925 20.5186 22.864 19.9054 22.2078C19.2923 21.5519 18.2638 21.5169 17.6076 22.1301C12.1808 27.2024 7.8898 33.1961 4.85568 39.9431C1.71634 46.9236 0.0824943 54.3707 0.000108208 62.0786C-0.00567327 62.6715 0.220382 63.2314 0.63925 63.6549C1.05812 64.0784 1.61603 64.3123 2.2121 64.3123C2.93941 64.3123 3.62018 63.953 4.03356 63.3523C7.59061 58.1807 13.1087 55.3328 19.5724 55.3328C26.1544 55.3328 31.9529 58.2146 35.4805 63.2384C35.9525 63.9102 36.7203 64.3123 37.5346 64.3123H37.5355C38.3498 64.3123 39.1187 63.9113 39.5908 63.2384C42.1494 59.5943 45.903 57.0797 50.2831 55.9708V68.9985C50.2831 69.896 51.0104 70.6242 51.9091 70.6242C52.807 70.6242 53.5351 69.896 53.5351 68.9985V55.4209C54.1812 55.3634 54.836 55.3328 55.5 55.3328C56.164 55.3328 56.8199 55.3634 57.466 55.4209V82.6107H53.5351V75.5026C53.5351 74.6048 52.807 73.8763 51.9091 73.8763C51.0104 73.8763 50.2831 74.6048 50.2831 75.5026V95.0116C50.2831 103.83 57.457 111.004 66.2758 111.004C75.0949 111.004 82.2688 103.83 82.2688 95.0116V91.4196C82.2688 88.5425 79.9279 86.2015 77.0519 86.2015C74.1747 86.2015 71.8338 88.5425 71.8338 91.4196V95.0116C71.8338 98.075 69.3405 100.568 66.2758 100.568C63.2113 100.568 60.718 98.075 60.718 95.0116V55.9708C65.0981 57.0797 68.8506 59.5943 71.4092 63.2384C71.8812 63.9113 72.6501 64.3123 73.4645 64.3123H73.4653C74.2797 64.3111 75.0474 63.9102 75.5195 63.2384C79.0471 58.2134 84.8456 55.3316 91.4275 55.3316C97.8912 55.3316 103.409 58.1807 106.966 63.3511C107.379 63.953 108.061 64.3123 108.788 64.3123C109.384 64.3123 109.943 64.0784 110.362 63.6538C110.78 63.2314 111.007 62.6715 111 62.0786C110.842 47.3809 104.999 33.5878 94.5463 23.241ZM66.2758 103.82C71.1337 103.82 75.0859 99.8692 75.0859 95.0116V91.4196C75.0859 90.3356 75.9678 89.4536 77.0519 89.4536C78.1347 89.4536 79.0167 90.3356 79.0167 91.4196V95.0116C79.0167 102.036 73.3017 107.752 66.2758 107.752C59.2501 107.752 53.5351 102.036 53.5351 95.0116V85.8627H57.466V95.0116C57.466 99.8692 61.4182 103.82 66.2758 103.82ZM53.5351 5.21807C53.5351 4.13405 54.4171 3.25208 55.5011 3.25208C56.584 3.25208 57.466 4.13405 57.466 5.21807V7.22106C56.8132 7.19852 56.1582 7.18406 55.5011 7.18406C55.5 7.18406 55.5 7.18406 55.5 7.18406H55.4988C54.8429 7.18406 54.1879 7.1965 53.5351 7.21904V5.21807ZM55.4988 52.0807C49.1224 52.0807 43.3612 54.4294 39.2193 58.6256C39.5344 45.939 41.3264 34.1593 44.3446 25.1032C47.4522 15.7817 51.5186 10.4361 55.5011 10.4361C59.4837 10.4361 63.5501 15.7817 66.6576 25.1032C69.6759 34.1593 71.4667 45.9402 71.7829 58.6268C67.6399 54.4306 61.8775 52.0807 55.4988 52.0807ZM91.4275 52.0807C84.9933 52.0807 79.1881 54.4725 75.0385 58.7384C74.7269 45.6601 72.8748 33.4727 69.7415 24.0755C67.7969 18.24 65.4415 13.8099 62.8205 10.9533C86.8905 14.3725 105.869 34.3761 107.619 58.9653C103.503 54.5017 97.8617 52.0807 91.4275 52.0807Z" fill="#979797"/>
</svg>
