<svg width="40" height="40" viewBox="0 0 40 40" fill="none" xmlns="http://www.w3.org/2000/svg">
<path d="M0 20.1204C0.002327 30.0197 7.15656 38.4486 16.8734 40V25.9359H11.7996V20.1204H16.8794V15.6933C16.6523 13.5955 17.3644 11.5048 18.8226 9.98823C20.2808 8.47163 22.3339 7.68631 24.4251 7.84525C25.9262 7.86965 27.4234 8.00416 28.905 8.24772V13.196H26.3771C25.5068 13.0813 24.6319 13.3705 23.9987 13.9821C23.3656 14.5938 23.0427 15.4616 23.1212 16.3412V20.1204H28.663L27.777 25.938H23.1212V40C33.6298 38.329 40.9988 28.6722 39.8896 18.0257C38.7805 7.37914 29.5815 -0.530133 18.957 0.0277795C8.33243 0.585692 0.00168889 9.41548 0 20.1204Z" fill="#A7A7A7"/>
</svg>
