<svg width="84" height="90" viewBox="0 0 84 90" fill="none" xmlns="http://www.w3.org/2000/svg">
<path d="M1.75199 87.5547L15.7243 87.5547C16.6924 87.5547 17.4763 86.7698 17.4763 85.8027L17.4763 85.3116C20.6937 85.5653 23.9424 86.4624 27.3513 87.4068C31.4284 88.5356 35.6442 89.7026 39.9139 89.7026L59.5628 89.7026C64.9374 89.7026 69.2864 86.8693 71.1963 82.1235C72.2839 79.4205 72.3314 76.6329 71.4271 74.555C72.7603 73.598 73.8689 72.2683 74.6765 70.6177C76.1346 67.6374 76.2797 64.2631 75.1656 61.6643C77.0756 60.1676 78.2536 58.0168 78.7909 55.9445C79.4207 53.5174 79.2417 51.1539 78.4022 49.3491C81.6343 48.0505 83.9285 44.9518 83.9285 41.3947C83.9285 38.952 82.9812 36.7054 81.2622 35.0684C79.6013 33.4878 77.3839 32.6174 75.0178 32.6174L46.5624 32.6184C43.6779 29.4811 42.7153 24.893 44.2372 21.2294C46.5204 15.7342 46.3926 11.2967 43.8085 6.39203C41.9423 2.85064 37.4473 1.11953e-05 33.9587 1.08903e-05C33.6787 1.08658e-05 33.4058 0.0182375 33.1404 0.0565446C30.9913 0.363261 29.493 1.84429 29.0295 4.11909C28.8772 4.86731 28.8314 5.74962 28.7786 6.77162C28.6317 9.60684 28.4308 13.4895 25.9481 18.2463C24.4979 21.0231 23.998 23.9805 23.5553 26.5894C22.7433 31.3901 22.2596 34.2398 17.4764 34.7626L17.4764 34.2863C17.4764 33.3182 16.6924 32.5343 15.7243 32.5343L1.752 32.5343C0.784894 32.5343 -2.70011e-06 33.3182 -2.78474e-06 34.2863L-7.28845e-06 85.8027C-7.37308e-06 86.7707 0.784889 87.5547 1.75199 87.5547ZM3.504 36.0383L13.9723 36.0383L13.9723 52.1595C13.9723 53.1269 14.757 53.9115 15.7243 53.9115C16.6924 53.9115 17.4764 53.1269 17.4764 52.1595L17.4764 38.2785C25.2508 37.5742 26.1824 32.068 27.011 27.1743C27.4289 24.7061 27.8606 22.1538 29.0541 19.867C31.8902 14.433 32.1238 9.93177 32.278 6.95243C32.3235 6.07082 32.3628 5.30976 32.4632 4.81803C32.6814 3.7486 33.1832 3.58976 33.6359 3.52504C35.5657 3.24939 39.2788 5.3135 40.7077 8.02536C42.8082 12.0132 42.8905 15.3373 41.0016 19.8843C39.329 23.9111 39.8646 28.7383 42.2069 32.6184L40.0471 32.6184C39.0797 32.6184 38.2951 33.403 38.2951 34.3704C38.2951 35.3384 39.0797 36.1224 40.0471 36.1224L75.0178 36.1214C76.4806 36.1214 77.8401 36.6489 78.8458 37.606C79.8631 38.5752 80.4245 39.9212 80.4245 41.3947C80.4245 44.1433 78.0602 46.43 75.1537 46.4928L66.3937 46.6837C65.4266 46.7047 64.659 47.5067 64.68 48.474C64.701 49.4285 65.4813 50.1877 66.4311 50.1877C66.4439 50.1877 66.4568 50.1877 66.4694 50.1877L74.662 50.0088C75.6118 50.8775 75.9403 52.979 75.3992 55.065C75.0916 56.2513 73.7367 60.1202 69.2116 60.1202C68.2443 60.1202 67.4596 60.9051 67.4596 61.8722C67.4596 62.8395 68.2443 63.6242 69.2116 63.6242C70.2346 63.6242 71.1715 63.492 72.0258 63.252C72.6362 64.8926 72.4746 67.1448 71.5285 69.0783C71.0428 70.0711 70.0685 71.543 68.331 72.3048C68.2798 72.3239 68.2298 72.3449 68.1796 72.3697C67.5152 72.6379 66.7432 72.804 65.8499 72.804C64.8816 72.804 64.0979 73.5879 64.0979 74.556C64.0979 75.5233 64.8816 76.308 65.8499 76.308C66.6785 76.308 67.4788 76.2113 68.2415 76.0232C68.687 77.1202 68.7215 78.8858 67.9451 80.8158C67.2945 82.4337 65.1736 86.1986 59.5628 86.1986L39.9139 86.1986C36.1205 86.1986 32.3154 85.1446 28.2867 84.0296C24.7691 83.0551 21.1474 82.0541 17.4763 81.7976L17.4764 67.9276C17.4764 66.9604 16.6924 66.1756 15.7243 66.1756C14.757 66.1756 13.9723 66.9604 13.9723 67.9276L13.9723 84.0507L3.504 84.0507L3.504 36.0383Z" fill="#979797"/>
<path d="M15.7244 61.7964C16.6925 61.7964 17.4764 61.0118 17.4764 60.0444L17.4764 60.0426C17.4764 59.0755 16.6925 58.2915 15.7244 58.2915C14.7571 58.2915 13.9724 59.0764 13.9724 60.0444C13.9724 61.0118 14.7571 61.7964 15.7244 61.7964Z" fill="#979797"/>
</svg>
