<svg width="61" height="74" viewBox="0 0 61 74" fill="none" xmlns="http://www.w3.org/2000/svg">
<path d="M40.6791 30.3665C32.8668 25.9645 19.5175 21.1523 20.0383 12.8403C20.3398 6.68841 26.617 3.62612 32.9765 4.22764C42.7349 5.15727 47.1482 10.8991 49.9167 23.3943H53.0964L51.4518 0.345093C51.4518 0.345093 50.3279 0.345093 49.3959 0.345093C47.9705 6.19626 44.27 1.46611 32.9491 0.536486C22.4779 -0.174403 6.66155 2.36839 5.72956 18.4728C5.01687 32.089 17.955 37.9402 28.1247 43.2719C39.2263 48.9043 46.4081 52.076 44.873 60.798C43.8588 66.2391 38.1024 70.7231 28.8374 70.231C21.6556 69.8209 16.6119 67.2507 15.6799 62.5479C14.3367 55.7945 19.0789 53.2243 23.6018 53.5251C23.6018 49.6425 19.5997 44.2015 12.7195 43.4906C5.12651 42.7797 -1.04105 49.0137 0.795514 57.9271C2.74172 67.5515 15.488 73.1019 28.4262 73.9221C41.7755 74.7424 57.7016 69.11 59.8671 55.3843C62.2519 41.0298 50.5472 35.6982 40.6791 30.3665Z" fill="#111111"/>
</svg>
