<svg width="84" height="113" viewBox="0 0 84 113" fill="none" xmlns="http://www.w3.org/2000/svg">
<path d="M31.1878 22.6141C37.3033 22.6141 42.2784 17.5419 42.2784 11.3071C42.2784 5.07219 37.3031 0 31.1878 0C25.0726 0 20.0973 5.07219 20.0973 11.3071C20.0973 17.5419 25.0726 22.6141 31.1878 22.6141ZM31.1878 3.31077C35.5126 3.31077 39.031 6.89807 39.031 11.3071C39.031 15.716 35.5126 19.3033 31.1878 19.3033C26.8631 19.3033 23.3447 15.7163 23.3447 11.3071C23.3447 6.89785 26.8631 3.31077 31.1878 3.31077Z" fill="#979797"/>
<path d="M72.7658 68.9198C72.1255 68.2802 71.0974 68.2899 70.4696 68.9428L56.8413 83.113L52.0286 77.9792C51.409 77.318 50.3812 77.2944 49.7329 77.9263C49.0847 78.5579 49.0613 79.6056 49.6809 80.2668L55.6526 86.6367C56.2861 87.3128 57.3431 87.3198 57.9858 86.652L72.7883 71.261C73.4161 70.6077 73.4059 69.5598 72.7658 68.9198Z" fill="#979797"/>
<path d="M81.7247 79.9766C80.8458 79.7989 79.9905 80.3807 79.8155 81.2776C77.9538 90.8281 71.3437 98.9881 62.5643 102.574C61.7319 102.914 61.3275 103.878 61.6609 104.726C61.9943 105.575 62.9396 105.987 63.772 105.647C73.8795 101.519 80.9661 92.3607 83.0004 81.923C83.1755 81.026 82.604 80.1547 81.7247 79.9766Z" fill="#979797"/>
<path d="M78.9375 54.4679C74.5941 56.9696 70.4973 57.053 66.76 54.716C63.7891 52.8581 62.1242 50.1373 62.0577 50.0274C61.5107 49.1143 60.5764 48.5533 59.5358 48.5021C56.5151 39.8795 51.4735 33.89 47.6757 30.3241C45.2535 28.05 42.1096 26.7977 38.8228 26.7977C37.2443 26.7977 25.0899 26.7977 23.5532 26.7977C20.0441 26.7977 16.7041 28.142 14.1485 30.5828C8.88685 35.6086 0.0517707 46.5882 3.26992e-05 63.6507C-0.0110076 67.2283 2.77505 70.2173 6.21033 70.3137C9.79887 70.4208 12.7802 67.4848 12.7802 63.8015C12.7802 57.398 14.5443 51.3699 17.92 46.1269V107.256C17.92 110.423 20.4472 113 23.5534 113H27.1787C28.746 113 30.1661 112.344 31.1883 111.287C32.2105 112.344 33.6304 113 35.1979 113H38.8233C41.9295 113 44.4566 110.423 44.4566 107.256V98.5295C47.4603 101.606 51.0365 104.033 54.988 105.647C55.821 105.987 56.7657 105.574 57.0991 104.726C57.4327 103.877 57.0281 102.914 56.1958 102.574C45.7421 98.3037 38.3886 87.7181 38.3886 75.4877V57.4439C44.9621 61.1557 51.3268 60.2503 56.5263 55.3035C57.7191 54.1863 58.6911 53.004 59.3481 51.9535C59.3583 51.9376 59.3717 51.9175 59.3806 51.9034C59.8469 52.6376 61.7949 55.4946 65.0633 57.5383C68.3499 59.594 73.6637 61.2331 80.3728 57.4437V73.8752C80.3728 74.7896 81.0997 75.5305 81.9964 75.5305C82.893 75.5305 83.6199 74.7896 83.6199 73.8752V57.2536C83.6191 54.8069 81.0307 53.2631 78.9375 54.4679ZM34.0426 30.1085L32.0984 32.4629C31.6224 33.0392 30.7534 33.0392 30.2772 32.4629L28.3328 30.1085H34.0426ZM41.2086 107.257C41.2086 108.598 40.1384 109.689 38.8226 109.689H35.1973C33.8817 109.689 32.8112 108.598 32.8112 107.257V73.2376C32.8112 72.3232 32.0843 71.5823 31.1877 71.5823C30.291 71.5823 29.5641 72.3232 29.5641 73.2376V107.257C29.5641 108.598 28.4938 109.689 27.1781 109.689H23.5527C22.2372 109.689 21.1667 108.598 21.1667 107.257V41.2425C21.1667 39.7199 19.3113 39.0081 18.3255 40.1474C12.5726 46.7941 9.53195 54.9738 9.53195 63.8017C9.53195 65.5836 8.1045 67.0484 6.29908 67.0045C4.61056 66.9571 3.24113 65.4574 3.24676 63.6613C3.29481 47.8418 11.4883 37.6603 16.3683 32.9993C18.3198 31.1354 20.871 30.1085 23.5525 30.1085H24.0874L27.7927 34.5949C29.5663 36.7433 32.8106 36.7404 34.582 34.5949L38.287 30.1085H38.822C41.2917 30.1085 43.6544 31.05 45.4752 32.7594C49.0719 36.1366 53.8717 41.8525 56.6486 50.1097C55.4123 52.0122 53.5266 53.8272 51.5127 54.9861C50.2086 49.6731 47.7081 44.8042 44.0622 40.4877C43.0805 39.3255 41.208 40.0397 41.208 41.5678V55.1894C40.5085 54.8647 39.6314 54.3679 39.6073 54.3565C37.5443 53.3666 35.1397 54.8985 35.1397 57.2539V57.3108V75.4881C35.1397 82.4177 37.2415 89.045 41.208 94.6381V107.257H41.2086V107.257ZM44.456 56.2587V46.5553C46.3268 49.5498 47.6672 52.7771 48.4608 56.2018C47.1594 56.4926 45.8269 56.5105 44.456 56.2587Z" fill="#979797"/>
</svg>
