<svg width="36" height="36" viewBox="0 0 36 36" fill="none" xmlns="http://www.w3.org/2000/svg">
<path d="M17.99 36C13.0727 36 12.4931 35.974 10.5741 35.8902C9.0777 35.8411 7.60064 35.5373 6.20655 34.992C3.79451 34.0547 1.88723 32.1494 0.949472 29.7405C0.424377 28.3434 0.141157 26.8672 0.111938 25.3752C0 23.4631 0 22.8363 0 17.9641C0 13.0399 0.0259856 12.4651 0.111938 10.5589C0.141796 9.0689 0.425006 7.59483 0.949472 6.1996C1.88621 3.78748 3.79659 1.88058 6.21255 0.946108C7.60906 0.419565 9.08564 0.136017 10.5781 0.107784C12.4871 0 13.1147 0 17.99 0C22.9473 0 23.5169 0.0259481 25.4059 0.107784C26.9022 0.136261 28.3827 0.41978 29.7835 0.946108C32.1987 1.88164 34.1087 3.78817 35.0465 6.1996C35.5805 7.61516 35.8652 9.11228 35.8881 10.6247C36 12.5369 36 13.1617 36 18.0319C36 22.9022 35.972 23.5409 35.8881 25.4311C35.8583 26.9246 35.5744 28.402 35.0485 29.8004C34.1084 32.211 32.1982 34.1169 29.7835 35.0539C28.3847 35.5772 26.9073 35.86 25.4139 35.8902C23.5049 36 22.8793 36 17.99 36ZM17.922 3.15968C13.0328 3.15968 12.525 3.18363 10.6161 3.26946C9.4767 3.28453 8.34832 3.49449 7.27996 3.89022C5.70234 4.49303 4.45398 5.73451 3.84386 7.30738C3.44451 8.38582 3.23422 9.52491 3.22221 10.6747C3.11627 12.6088 3.11627 13.1158 3.11627 17.9641C3.11627 22.7545 3.13426 23.3353 3.22221 25.2575C3.2401 26.3956 3.45027 27.5226 3.84386 28.5908C4.45488 30.1626 5.70302 31.4032 7.27996 32.006C8.34759 32.4043 9.47644 32.6144 10.6161 32.6267C12.551 32.7385 13.0607 32.7385 17.922 32.7385C22.8253 32.7385 23.333 32.7146 25.226 32.6267C26.3662 32.6129 27.4954 32.4029 28.5641 32.006C30.1322 31.398 31.3724 30.1603 31.9822 28.5948C32.3808 27.5155 32.5911 26.3759 32.6039 25.2255H32.6259C32.7118 23.3174 32.7118 22.8084 32.7118 17.9321C32.7118 13.0559 32.6898 12.5429 32.6039 10.6367C32.586 9.4999 32.3758 8.37427 31.9822 7.30738C31.3738 5.73967 30.1334 4.49959 28.5641 3.89022C27.4956 3.4925 26.3662 3.28248 25.226 3.26946C23.2931 3.15968 22.7873 3.15968 17.922 3.15968ZM17.99 27.1836C14.2521 27.1861 10.8808 24.9396 9.44848 21.4919C8.01616 18.0443 8.80492 14.0745 11.4469 11.4341C14.0889 8.7936 18.0637 8.00253 21.5176 9.4298C24.9714 10.8571 27.2241 14.2215 27.2249 17.9541C27.2194 23.046 23.0893 27.1737 17.99 27.1836ZM17.99 11.9621C14.6781 11.9621 11.9933 14.643 11.9933 17.9501C11.9933 21.2572 14.6781 23.9381 17.99 23.9381C21.3019 23.9381 23.9867 21.2572 23.9867 17.9501C23.979 14.6462 21.2987 11.9698 17.99 11.9621ZM27.5847 10.5389C26.3962 10.5345 25.4357 9.57004 25.4379 8.38325C25.4401 7.19646 26.4042 6.23554 27.5927 6.23554C28.7812 6.23554 29.7453 7.19645 29.7475 8.38323C29.748 8.95581 29.5202 9.50504 29.1143 9.90954C28.7085 10.314 28.1581 10.5405 27.5847 10.5389Z" fill="#A7A7A7"/>
</svg>
