<svg width="203" height="74" viewBox="0 0 203 74" fill="none" xmlns="http://www.w3.org/2000/svg">
<path d="M22.0501 32.1711C17.116 29.4642 13.9911 28.1791 14.3475 25.4176C14.5668 23.4216 16.3485 22.574 18.8429 22.9295C22.5435 23.367 24.1882 25.5543 25.4217 31.3235H27.1486L26.4085 20.2773C26.4085 20.2773 25.6136 20.2773 25.2024 20.2773C24.5719 22.9842 23.4755 20.8515 18.8429 20.2773C12.5657 19.5664 5.4936 21.1249 4.64384 28.0424C3.84891 34.8779 10.2906 38.0222 15.0053 40.4283C19.9942 42.9985 23.2288 44.1195 22.708 47.838C22.4338 50.1073 19.3638 51.5291 15.4988 51.3377C12.648 51.119 9.3586 50.2714 8.92002 48.3575C8.48144 46.2248 9.90683 44.721 11.9901 44.8577C11.9079 42.0141 10.4276 39.362 6.78193 38.8698C2.42352 38.241 -0.865848 42.2055 0.203196 46.5529C1.35447 51.2557 9.33119 53.6071 15.2795 53.8805C22.5709 54.318 31.6167 52.5955 33.042 45.6233C34.6867 37.6394 27.0664 34.9326 22.0501 32.1711Z" fill="#111111"/>
<path d="M43.4037 14.2074C47.4331 14.2074 50.7225 11.0631 50.7225 7.26259C50.7225 3.46207 47.4331 0.317749 43.4037 0.317749C39.3742 0.317749 36.0848 3.46207 36.0848 7.26259C36.0848 11.0631 39.3742 14.2074 43.4037 14.2074Z" fill="#111111"/>
<path d="M50.7772 43.8186V20.3593C50.7772 20.3593 50.1193 20.3593 48.8036 20.3593C44.4177 24.2965 36.9344 26.0464 32.6857 26.0464C32.6857 26.8393 32.6857 27.14 32.6857 28.015C38.2502 28.015 38.9903 31.8155 38.9903 36.409V43.7913C38.9903 48.3847 38.2502 52.1852 32.6857 52.1852C32.6857 53.0602 32.6857 54.1538 32.6857 54.1538H56.8625C56.8625 54.1538 56.8625 53.7164 56.8625 52.1852C51.2158 52.2126 50.7772 48.412 50.7772 43.8186Z" fill="#111111"/>
<path d="M99.6791 30.3665C91.8668 25.9645 78.5175 21.1523 79.0383 12.8403C79.3398 6.68841 85.617 3.62612 91.9765 4.22764C101.735 5.15727 106.148 10.8991 108.917 23.3943H112.096L110.452 0.345093C110.452 0.345093 109.328 0.345093 108.396 0.345093C106.971 6.19626 103.27 1.46611 91.9491 0.536486C81.4779 -0.174403 65.6616 2.36839 64.7296 18.4728C64.0169 32.089 76.955 37.9402 87.1247 43.2719C98.2263 48.9043 105.408 52.076 103.873 60.798C102.859 66.2391 97.1024 70.7231 87.8374 70.231C80.6556 69.8209 75.6119 67.2507 74.6799 62.5479C73.3367 55.7945 78.0789 53.2243 82.6018 53.5251C82.6018 49.6425 78.5997 44.2015 71.7195 43.4906C64.1265 42.7797 57.959 49.0137 59.7955 57.9271C61.7417 67.5515 74.488 73.1019 87.4262 73.9221C100.776 74.7424 116.702 69.11 118.867 55.3843C121.252 41.0298 109.547 35.6982 99.6791 30.3665Z" fill="#111111"/>
<path d="M139.015 20.578C128.351 18.9101 119.635 24.4058 118.072 34.3036C116.51 44.2287 123.143 52.1032 133.806 53.771C144.387 55.4115 153.131 49.9432 154.694 40.0181C156.229 30.1203 149.595 22.2185 139.015 20.578ZM136.63 51.4196C132.299 51.4743 129.695 45.9239 129.53 37.3386C129.366 28.6712 131.696 23.0387 136.136 22.9567C140.55 22.8474 143.154 28.3704 143.318 37.0651C143.455 45.7052 141.043 51.3103 136.63 51.4196Z" fill="#111111"/>
<path d="M201.156 48.0019C200.443 49.205 199.511 49.8612 198.305 49.5057C196.578 49.0136 196.523 46.5801 196.523 43.1624V20.3593C196.523 20.3593 195.811 20.3593 194.605 20.3593C190.246 24.1324 183.832 25.9097 179.693 25.9097C179.693 26.7026 179.693 26.976 179.693 27.8236C185.12 27.8236 184.983 31.5148 184.983 36.0262V39.7173C184.983 44.4201 183.558 48.1933 179.199 48.1933C174.348 48.1933 173.142 44.4201 173.142 40.2095V20.3593C173.142 20.3593 172.429 20.3593 171.223 20.3593C166.947 24.1324 160.505 25.9097 156.366 25.9097C156.366 26.7026 156.366 26.976 156.366 27.8236C161.793 27.8236 161.656 31.5148 161.656 36.0262V41.3578C161.738 50.2713 166.864 53.9625 174.019 53.9625C179.802 53.9625 183.229 51.3376 185.312 48.2753C186.244 52.2673 189.451 53.9625 194.248 53.9625C198.25 53.9625 200.745 52.3219 202.472 48.6855L201.156 48.0019Z" fill="#111111"/>
</svg>
