<svg width="101" height="101" viewBox="0 0 101 101" fill="none" xmlns="http://www.w3.org/2000/svg">
<path d="M46.3786 68.4505C47.1485 67.6796 47.1485 66.4321 46.3786 65.6611C45.6086 64.8931 44.3611 64.8931 43.5911 65.6611C42.8222 66.4321 42.8222 67.6796 43.5911 68.4505C44.3611 69.2185 45.6086 69.2185 46.3786 68.4505Z" fill="#979797"/>
<path d="M37.0466 21.6767C37.0466 33.6286 46.7714 43.3532 58.7231 43.3532C70.675 43.3532 80.3998 33.6286 80.3998 21.6767C80.3998 9.7238 70.675 0 58.7231 0C46.7714 0 37.0466 9.7238 37.0466 21.6767ZM76.4585 21.6767C76.4585 31.4552 68.5028 39.4119 58.7231 39.4119C48.9436 39.4119 40.9879 31.4552 40.9879 21.6767C40.9879 11.898 48.9436 3.94126 58.7231 3.94126C68.5028 3.94126 76.4585 11.898 76.4585 21.6767Z" fill="#979797"/>
<path d="M22.698 100.339C23.4613 101.109 24.7049 101.117 25.4788 100.355L35.0331 90.9433C36.6558 89.3195 37.1496 86.9163 36.4353 84.8276L38.4902 82.8459C39.597 81.7768 41.0541 81.1877 42.5941 81.1877H68.7906C73.4382 81.1877 77.8309 79.4033 81.1611 76.1625C81.2976 76.0287 80.1206 77.4157 99.033 54.8123C101.838 51.4937 101.418 46.5111 98.0965 43.7025C94.7954 40.921 89.851 41.3204 87.0378 44.5824L75.4103 56.5331C73.9416 54.7266 71.7029 53.5996 69.2833 53.5996H47.3092C44.1823 52.2917 40.8647 51.6294 37.4411 51.6294C27.9523 51.6294 19.6664 56.0125 15.2198 64.2291C13.3468 63.8748 11.371 64.4407 9.94929 65.8624L0.57486 75.2647C-0.190183 76.0327 -0.192151 77.2743 0.572153 78.0442L22.698 100.339ZM37.4401 55.5707C40.4584 55.5707 43.3766 56.178 46.1157 57.3762C46.3651 57.4851 46.6336 57.5418 46.9059 57.5418H69.2833C71.42 57.5418 73.2246 59.284 73.2246 61.4821C73.2246 63.6555 71.4565 65.4236 69.2833 65.4236H53.2054C52.1178 65.4236 51.2352 66.3062 51.2352 67.3937C51.2352 68.483 52.1178 69.3649 53.2054 69.3649H69.2833C73.6297 69.3649 77.1659 65.8287 77.1659 61.4821C77.1659 61.1357 77.1407 60.7922 77.0966 60.4524C88.3449 48.8893 89.9311 47.2646 89.9984 47.1838C91.4026 45.5266 93.8963 45.3157 95.5547 46.7142C97.2149 48.1174 97.4248 50.6094 96.0167 52.2762L78.3419 73.4062C75.7607 75.8836 72.3728 77.2474 68.7906 77.2474H42.5941C40.0264 77.2474 37.597 78.229 35.753 80.0097L34.0783 81.6265L18.6405 66.1886C22.2486 59.4205 29.0197 55.5707 37.4401 55.5707ZM12.7387 68.6476C13.3882 67.9981 14.3863 67.8806 15.1784 68.3704C15.5192 68.5784 14.5403 67.6862 32.2457 85.3687C33.0341 86.1559 32.9917 87.411 32.2572 88.1453L24.1121 96.1695L4.75019 76.6593L12.7387 68.6476Z" fill="#979797"/>
<path d="M56.3585 9.85363V12.1626C54.0648 12.9759 52.4172 15.1666 52.4172 17.7354C52.4172 20.9952 55.0686 23.6478 58.3286 23.6478C59.4152 23.6478 60.2997 24.5314 60.2997 25.6179C60.2997 26.7045 59.4152 27.5881 58.3286 27.5881C57.4874 27.5881 56.5778 27.0586 55.7703 26.0972C55.0696 25.2646 53.827 25.157 52.9935 25.8574C52.1612 26.5582 52.0533 27.8007 52.754 28.6333C53.8068 29.8864 55.0457 30.7594 56.3585 31.2002V33.4995C56.3585 34.589 57.241 35.4706 58.3286 35.4706C59.4172 35.4706 60.2997 34.589 60.2997 33.4995V31.1906C62.5931 30.3772 64.241 28.1868 64.241 25.6179C64.241 22.358 61.5893 19.7056 58.3286 19.7056C57.243 19.7056 56.3585 18.822 56.3585 17.7354C56.3585 16.6486 57.243 15.7643 58.3286 15.7643C59.0274 15.7643 59.7646 16.1213 60.4604 16.7949C61.2429 17.5516 62.4901 17.5304 63.2468 16.7489C64.0032 15.9673 63.983 14.7198 63.2015 13.9624C62.2016 12.9951 61.2005 12.4476 60.2997 12.1483V9.85363C60.2997 8.76409 59.4172 7.88251 58.3286 7.88251C57.241 7.88251 56.3585 8.76409 56.3585 9.85363Z" fill="#979797"/>
</svg>
