<svg width="111" height="85" viewBox="0 0 111 85" fill="none" xmlns="http://www.w3.org/2000/svg">
<path d="M22.487 60.1188C18.92 59.6533 15.7155 62.8718 15.3417 67.2866C15.161 69.4264 15.6637 71.524 16.7578 73.1941C17.8508 74.8641 19.4056 75.9066 21.1342 76.1302C21.3646 76.1596 21.595 76.175 21.8242 76.175C23.3091 76.175 24.7385 75.5517 25.9072 74.3793C27.2566 73.0248 28.0989 71.1018 28.2796 68.9624C28.4602 66.8226 27.9578 64.7236 26.8637 63.055C25.7705 61.3849 24.2156 60.3424 22.487 60.1188ZM25.0447 68.5431C24.8582 70.7512 23.2548 72.3569 21.4719 72.1279C20.607 72.0145 19.8303 71.4947 19.2836 70.6589C18.737 69.8246 18.4853 68.7749 18.5769 67.7045C18.7506 65.6391 20.1656 64.0989 21.8083 64.0989C21.9213 64.0989 22.0344 64.1061 22.1483 64.1214C23.0143 64.2331 23.7913 64.7543 24.3376 65.5887C24.8842 66.423 25.1348 67.4727 25.0447 68.5431Z" fill="#979797"/>
<path d="M46.5787 38.7325L27.9963 36.3273L22.0705 14.54C21.4583 12.2871 20.6194 9.2014 17.8248 8.84077L0 6.5321V73.394L9.93768 74.6809C11.7735 79.7512 15.6793 83.5174 20.4569 84.1367C20.9186 84.1968 21.3782 84.2262 21.8343 84.2262C24.8042 84.2262 27.6618 82.9783 30.0015 80.6317C30.897 79.733 31.6795 78.7058 32.34 77.5824L49.2909 79.7763L52.0876 70.2704L53.8188 49.7868C54.0434 47.1232 53.4133 44.503 52.0425 42.4107C50.6718 40.3171 48.7319 39.012 46.5787 38.7325ZM17.4871 12.8435C18.1002 12.9229 18.3994 13.6567 18.9888 15.823L24.4394 35.8661L15.9933 34.7731L15.6545 38.7758L46.2399 42.7363C47.5294 42.9027 48.6923 43.6865 49.5155 44.9444C49.9818 45.6571 50.3003 46.4707 50.4686 47.33L37.8163 45.6922L37.3081 51.6959C37.1729 53.2962 37.5521 54.8682 38.373 56.1232C39.1951 57.3783 40.3604 58.1621 41.6522 58.3285L49.7378 59.3753L49.0423 67.604L34.6762 65.7439C33.8192 58.6584 29.1806 52.8908 23.1634 52.1123C19.7083 51.6651 16.3184 52.9105 13.6186 55.6173C11.7839 57.458 10.4187 59.8268 9.61798 62.4986L3.25195 61.6743V37.1702L12.4207 38.3565L12.7595 34.3538L3.25195 33.1228V10.9999L17.4871 12.8435ZM50.4154 51.3703L50.0766 55.3726L41.991 54.3262C41.5628 54.2714 41.1755 54.0088 40.9 53.5895C40.6246 53.1688 40.4982 52.645 40.5433 52.1152L40.7116 50.1138L50.4154 51.3703ZM3.25195 69.7688V65.7214L8.87278 66.4494C8.75657 67.8319 8.78606 69.1917 8.94389 70.5051L3.25195 69.7688ZM27.9532 77.5041C25.9298 79.5348 23.3869 80.4667 20.7954 80.134C15.4458 79.441 11.5478 73.4903 12.108 66.8687C12.3788 63.6603 13.6435 60.7756 15.6669 58.7449C17.4218 56.984 19.5649 56.0492 21.7927 56.0492C22.1347 56.0492 22.4804 56.0703 22.8258 56.115C28.1758 56.808 32.0735 62.7587 31.5136 69.3803C31.2425 72.5891 29.9778 75.4734 27.9532 77.5041ZM34.0021 73.7504C34.3794 72.4925 34.6323 71.1691 34.7473 69.7996L48.2509 71.5476L47.1036 75.4469L34.0021 73.7504Z" fill="#979797"/>
<path d="M88.749 76.175C88.9591 76.175 89.1713 76.1625 89.3849 76.136C92.954 75.7056 95.5749 71.7616 95.2272 67.3439C94.8792 62.9265 91.6917 59.6801 88.1235 60.112C86.3937 60.3216 84.8333 61.3502 83.73 63.0102C82.6269 64.6706 82.1118 66.7625 82.2804 68.9052C82.6076 73.0585 85.4441 76.175 88.749 76.175ZM86.2414 65.5665C86.7923 64.7375 87.5737 64.2234 88.4385 64.1186C90.2249 63.9032 91.8171 65.5257 91.9908 67.7338C92.1648 69.9434 90.8539 71.9154 89.0699 72.1304C88.2038 72.2367 87.358 71.9168 86.6874 71.2346C86.0176 70.5527 85.6023 69.5856 85.5176 68.5152C85.4329 67.4433 85.6901 66.3965 86.2414 65.5665Z" fill="#979797"/>
<path d="M94.5585 16.9925C91.8598 17.356 90.4102 20.4346 89.5438 22.2738L82.8107 36.5734L64.2882 46.6871C62.4714 47.6796 56.9466 50.6966 57.4828 57.5167L59.2342 79.7709L78.1701 77.4887C78.8248 78.6178 79.5995 79.6507 80.4904 80.5576C82.8413 82.9503 85.7262 84.2261 88.7298 84.2261C89.1568 84.2261 89.5846 84.1997 90.0147 84.1478C93.4722 83.7314 96.5932 81.6728 98.7996 78.3509C99.5324 77.2483 100.132 76.049 100.598 74.7843L111 73.5307V55.388H107.748V61.7917L100.978 62.6063C100.193 59.9288 98.8415 57.5475 97.0167 55.69C94.3327 52.9577 90.9498 51.6833 87.4924 52.1012C84.0349 52.5176 80.915 54.5762 78.7075 57.8981C77.2069 60.1552 76.2516 62.8145 75.8992 65.6305L61.5253 67.3621L60.8657 58.9825L69.8867 57.0344L75.5865 44.918L84.3667 40.1232L107.748 37.3043V43.3134H111V14.7804L94.5585 16.9925ZM107.748 65.8348V69.879L101.609 70.6185C101.775 69.2937 101.809 67.9338 101.7 66.5643L107.748 65.8348ZM81.22 60.4543C82.874 57.9639 85.2148 56.4194 87.8086 56.1064C88.1303 56.0674 88.452 56.0492 88.7717 56.0492C91.0244 56.0492 93.1889 57.0051 94.9513 58.7997C96.9635 60.8482 98.2114 63.744 98.4643 66.9542C98.7161 70.1641 97.9437 73.3046 96.2882 75.795C94.6331 78.2851 92.2934 79.8295 89.6996 80.1426C87.105 80.4542 84.5688 79.4997 82.5569 77.4497C80.5436 75.4007 79.2969 72.505 79.0439 69.2951C78.791 66.0849 79.5634 62.9447 81.22 60.4543ZM75.8067 69.6847C75.9151 71.0546 76.1602 72.3808 76.5294 73.6427L62.1552 75.3757L61.8404 71.3687L75.8067 69.6847ZM67.8373 53.391L61.0001 54.8682C61.7464 52.7441 63.7655 51.3731 65.6002 50.371L70.5224 47.6821L67.8373 53.391ZM107.748 33.2598L86.9547 35.7656L92.3532 24.3002C93.0736 22.7701 93.9252 21.1265 94.9109 20.9937L107.748 19.2664V33.2598Z" fill="#979797"/>
<path d="M111 47.3383H107.748V51.3631H111V47.3383Z" fill="#979797"/>
<path d="M69.3467 20.4389L66.5893 31.4191L69.6944 32.614L74.3206 14.1933L62.8497 18.8303L55.5 0L48.1503 18.8303L36.6794 14.1933L41.3056 32.614L44.4107 31.4191L41.6533 20.4374L49.8419 23.7496L55.5 9.25292L61.1581 23.7496L69.3467 20.4389Z" fill="#979797"/>
<path d="M13.0417 19.191L16.1243 17.9066L17.162 21.7218L14.0783 23.0062L13.0417 19.191Z" fill="#979797"/>
<path d="M15.1172 26.8214L18.1998 25.5385L19.2375 29.3537L16.1538 30.6381L15.1172 26.8214Z" fill="#979797"/>
<path d="M99.4536 42.3088L102.69 41.9188L103.005 45.9226L99.7687 46.3125L99.4536 42.3088Z" fill="#979797"/>
<path d="M92.9822 43.0898L96.2182 42.6987L96.5333 46.7039L93.2972 47.0939L92.9822 43.0898Z" fill="#979797"/>
</svg>
