<svg width="99" height="99" viewBox="0 0 99 99" fill="none" xmlns="http://www.w3.org/2000/svg">
<path d="M97.35 95.3995H1.65C0.738787 95.3995 0 96.2056 0 97.1998C0 98.1939 0.738787 99 1.65 99H97.35C98.2612 99 99 98.1939 99 97.1998C99 96.2056 98.2612 95.3995 97.35 95.3995Z" fill="#979797"/>
<path d="M29.1622 77.3592C28.9681 76.7069 28.4512 76.2314 27.829 76.1333L23.1463 75.3916L21.0541 70.7631C20.6504 69.8718 19.6608 69.5063 18.8439 69.9467C18.519 70.1218 18.2563 70.4087 18.0956 70.7631L16.0051 75.3916L11.3191 76.1369C10.418 76.2849 9.79756 77.2022 9.93348 78.1853C9.98648 78.5692 10.1519 78.9243 10.405 79.1973L13.7924 82.7978L12.9938 87.8853C12.8404 88.8653 13.4443 89.7956 14.3425 89.9628C14.6991 90.0292 15.0658 89.9659 15.3863 89.7827L19.574 87.3812L23.7601 89.7917C24.5667 90.2544 25.5643 89.9162 25.9884 89.0361C26.1573 88.6857 26.2155 88.2845 26.1542 87.8943L25.354 82.8068L28.7431 79.2063C29.1939 78.7281 29.3564 78.0118 29.1622 77.3592ZM22.4401 80.8877C22.0511 81.3018 21.8739 81.8983 21.9665 82.4827L22.346 84.9077L20.3495 83.7627C19.8696 83.488 19.2966 83.488 18.8167 83.7627L16.8202 84.9077L17.1997 82.4827C17.2923 81.8983 17.1151 81.3018 16.7261 80.8877L15.1108 79.1721L17.3416 78.812C17.879 78.727 18.3437 78.3586 18.584 77.8273L19.5823 75.6202L20.5805 77.8255C20.8204 78.3575 21.2853 78.7265 21.823 78.812L24.0538 79.1721L22.4401 80.8877Z" fill="#979797"/>
<path d="M73.3739 56.6654C75.8406 59.3568 79.8402 59.3568 82.307 56.6654C84.7737 53.9741 84.7737 49.6103 82.307 46.9189L65.5232 28.6104C64.8789 27.9076 63.8344 27.9076 63.1901 28.6104L51.15 41.736L40.1247 29.7067C47.4029 28.5211 52.7918 21.7062 52.8 13.6774V13.3695C52.8 10.3867 50.5839 7.96878 47.85 7.96878C45.1162 7.96878 42.9 10.3867 42.9 13.3695C42.8963 16.5213 40.555 19.0752 37.6662 19.0781C34.7682 19.0844 31.8937 19.6429 29.172 20.7289C30.9247 15.0782 28.147 8.94721 22.9678 7.03513C17.7887 5.12282 12.1694 8.15353 10.4169 13.8043C8.66438 19.455 11.442 25.586 16.6211 27.4981C17.4387 27.7998 18.2888 27.9839 19.1499 28.0451L18.645 28.6104C11.6224 36.2734 11.6224 48.6964 18.645 56.3594L19.2704 57.0417C21.2877 59.229 24.5483 59.2179 26.5531 57.0169C27.5101 55.9662 28.048 54.5461 28.05 53.0649C28.0539 51.5739 27.5109 50.1431 26.5419 49.0918L25.9166 48.4095C23.3721 45.6241 22.9394 41.2852 24.8754 37.9681L47.8236 62.9951H34.65C33.7388 62.9951 33 63.8011 33 64.7953C33 65.7895 33.7388 66.5956 34.65 66.5956H51.117L52.8 68.4318V84.598C52.8021 85.8629 53.11 87.1049 53.6927 88.1985H42.9C41.9888 88.1985 41.25 89.0046 41.25 89.9988C41.25 90.9929 41.9888 91.799 42.9 91.799H59.3555H59.4C63.0451 91.799 66 88.575 66 84.598V62.275C66 61.7975 65.826 61.3398 65.5166 61.0022L58.4331 53.2738L64.35 46.8289L73.3739 56.6654ZM13.2 17.2778C13.2 13.3009 16.155 10.0769 19.8 10.0769C23.4451 10.0769 26.4 13.3009 26.4 17.2778C26.4 21.2548 23.4451 24.4788 19.8 24.4788C16.155 24.4788 13.2 21.2548 13.2 17.2778ZM54.945 52.0136C54.3009 52.7166 54.3009 53.8561 54.945 54.5591L62.7 63.0311V84.598C62.7 86.5866 61.2227 88.1985 59.4 88.1985C57.5774 88.1985 56.1 86.5866 56.1 84.598V67.6757C56.1 67.1982 55.926 66.7405 55.6166 66.4029L25.9166 33.9985C25.2723 33.2958 24.2278 33.2958 23.5835 33.9985C19.2999 38.681 19.2999 46.2636 23.5835 50.946L24.2088 51.6283C24.9315 52.4162 24.9319 53.6939 24.2099 54.4824C23.8627 54.8616 23.3915 55.0744 22.9004 55.074C22.4099 55.0726 21.9399 54.8607 21.5919 54.4835L20.9666 53.8012C15.2322 47.5443 15.2322 37.4003 20.9666 31.1433L22.4169 29.5627C26.4522 25.1352 31.9434 22.6529 37.6662 22.6696C42.3735 22.6646 46.1901 18.5054 46.2 13.3695C46.2 12.3753 46.9388 11.5693 47.85 11.5693C48.7612 11.5693 49.5 12.3753 49.5 13.3695V13.6774C49.4928 20.6337 44.3258 26.2712 37.95 26.2791C37.0388 26.2791 36.3 27.0851 36.3 28.0793V29.8796C36.3 30.3571 36.4741 30.8148 36.7835 31.1523L49.9835 45.5543C50.6278 46.2571 51.6723 46.2571 52.3166 45.5543L64.35 32.4269L79.9673 49.4644C81.14 50.7566 81.1309 52.8412 79.9467 54.121C79.3859 54.727 78.6297 55.069 77.8404 55.074C77.0408 55.072 76.2742 54.7259 75.707 54.1109L65.5232 43.0124C64.8789 42.3096 63.8344 42.3096 63.1901 43.0124L54.945 52.0136Z" fill="#979797"/>
<path d="M33 88.1985C32.0888 88.1985 31.35 89.0046 31.35 89.9988C31.35 90.9929 32.0888 91.799 33 91.799H36.3C37.2112 91.799 37.95 90.9929 37.95 89.9988C37.95 89.0046 37.2112 88.1985 36.3 88.1985H33Z" fill="#979797"/>
<path d="M28.05 62.9951H24.75C23.8388 62.9951 23.1 63.8011 23.1 64.7953C23.1 65.7895 23.8388 66.5956 24.75 66.5956H28.05C28.9612 66.5956 29.7 65.7895 29.7 64.7953C29.7 63.8011 28.9612 62.9951 28.05 62.9951Z" fill="#979797"/>
<path d="M97.0315 2.55545C93.7187 3.28522 90.2756 2.63128 87.384 0.722799L86.6596 0.245731C86.614 0.220978 86.5672 0.198702 86.5194 0.179125C86.4715 0.153921 86.4237 0.132318 86.3742 0.110715C86.0079 -0.036905 85.6053 -0.036905 85.239 0.110715C85.1895 0.132318 85.1416 0.153921 85.0938 0.179125C85.0459 0.198702 84.9993 0.220978 84.9535 0.245731L84.2292 0.722799C81.3373 2.63241 77.8932 3.28657 74.58 2.55545C73.6871 2.35652 72.8155 2.98503 72.6334 3.95919C72.6111 4.07778 72.6 4.19862 72.6 4.31969V22.4482C72.6 25.0018 73.2328 27.508 74.4315 29.7014C75.8158 32.246 77.9051 34.2456 80.3979 35.4117L85.1466 37.644C85.5605 37.8385 86.0295 37.8385 86.4435 37.644L91.1938 35.4117C93.6866 34.2456 95.7759 32.246 97.1602 29.7014C98.3618 27.5089 98.9975 25.0027 99 22.4482V4.31969C99.0002 3.3255 98.2616 2.51922 97.3504 2.51899C97.2394 2.51899 97.1287 2.53114 97.02 2.55545H97.0315ZM77.2711 27.8561C76.3791 26.2226 75.9076 24.3569 75.9066 22.4554V6.38817C78.7349 6.63368 81.5737 6.09046 84.1566 4.80936V33.2532L81.7096 32.1029C79.8554 31.2356 78.3013 29.7486 77.2711 27.8561ZM95.7066 22.4554C95.7055 24.3569 95.2341 26.2226 94.342 27.8561C93.3122 29.7493 91.7579 31.237 89.9035 32.1047L87.45 33.255V4.80936C90.0328 6.09023 92.8717 6.63368 95.7 6.38817L95.7066 22.4554Z" fill="#979797"/>
</svg>
