<svg width="42" height="34" viewBox="0 0 42 34" fill="none" xmlns="http://www.w3.org/2000/svg">
<path d="M37.0527 5.36108C38.8526 4.28873 40.1993 2.60018 40.8415 0.610705C39.1502 1.61081 37.2997 2.31531 35.3701 2.69375C32.6948 -0.126609 28.4561 -0.812956 25.0225 1.01822C21.5889 2.8494 19.8104 6.74476 20.6808 10.5277C13.7529 10.181 7.29843 6.9197 2.92342 1.55518C0.640179 5.47999 1.80696 10.4972 5.58983 13.0209C4.2219 12.9771 2.88432 12.608 1.68859 11.9444C1.68859 11.9804 1.68859 12.0164 1.68859 12.0524C1.68938 16.1408 4.58063 19.6624 8.60159 20.4727C7.33276 20.8167 6.00185 20.8673 4.71039 20.6207C5.84121 24.117 9.07454 26.5123 12.7598 26.5837C9.70757 28.9712 5.93814 30.2659 2.05804 30.2596C1.37029 30.2605 0.683088 30.2211 0 30.1415C3.94016 32.6648 8.52603 34.0042 13.2096 33.9994C19.7255 34.044 25.9875 31.484 30.5949 26.8919C35.2023 22.2998 37.7706 16.0589 37.7253 9.56519C37.7253 9.193 37.7166 8.82282 37.6992 8.45463C39.3867 7.23923 40.8431 5.73357 42 4.00841C40.4279 4.70288 38.7603 5.15883 37.0527 5.36108Z" fill="#A7A7A7"/>
</svg>
