<svg width="40" height="28" viewBox="0 0 40 28" fill="none" xmlns="http://www.w3.org/2000/svg">
<path d="M20.0248 28H19.9848C19.8609 28 7.46514 27.976 4.33772 27.1267C2.61799 26.6635 1.27495 25.3197 0.812635 23.5998C0.250255 20.4272 -0.0213149 17.2099 0.00130455 13.988C-0.0132252 10.7608 0.265694 7.53896 0.834617 4.36226C1.30964 2.64076 2.64678 1.29079 4.3637 0.799315C7.40519 0 19.4592 0 19.9708 0H20.0128C20.1387 0 32.5664 0.0239794 35.6619 0.873251C37.378 1.33887 38.7183 2.6799 39.183 4.39623C39.7632 7.58059 40.0356 10.8134 39.9963 14.05C40.0103 17.2733 39.7307 20.4911 39.161 23.6637C38.6927 25.3815 37.3488 26.7223 35.6299 27.1867C32.5924 27.992 20.5364 28 20.0248 28ZM16.0281 8.00314L16.0181 19.9929L26.4335 13.998L16.0281 8.00314Z" fill="#A7A7A7"/>
</svg>
